<svg width="391.895996" height="408.820648" viewBox="0 0 391.896 408.821" fill="none" xmlns="http://www.w3.org/2000/svg" xmlns:xlink="http://www.w3.org/1999/xlink">
	<desc>
			Created with Pixso.
	</desc>
	<defs/>
	<path id="Vector" d="M330.24 212.77L61.7 212.77L61.7 325.89L330.24 325.89L330.24 212.77Z" fill="#38BFF2" fill-opacity="1.000000" fill-rule="nonzero"/>
	<path id="Vector" d="M330.24 212.77L330.24 325.89L61.7 325.89L61.7 212.77L330.24 212.77Z" stroke="#263238" stroke-opacity="1.000000" stroke-width="1.000000" stroke-linejoin="round"/>
	<path id="Vector" d="M92.57 219.62L67.31 219.62L67.31 233.6L92.57 233.6L92.57 219.62Z" fill="#FFFFFF" fill-opacity="1.000000" fill-rule="nonzero"/>
	<path id="Vector" d="M92.57 219.62L92.57 233.6L67.31 233.6L67.31 219.62L92.57 219.62Z" stroke="#263238" stroke-opacity="1.000000" stroke-width="1.000000"/>
	<path id="Vector" d="M324.02 287.81L284.23 287.81L284.23 301.79L324.02 301.79L324.02 287.81Z" fill="#FFFFFF" fill-opacity="1.000000" fill-rule="nonzero"/>
	<path id="Vector" d="M324.02 287.81L324.02 301.79L284.23 301.79L284.23 287.81L324.02 287.81Z" stroke="#263238" stroke-opacity="1.000000" stroke-width="1.000000"/>
	<path id="Vector" d="M324.03 237.08L299.47 237.08L299.47 251.07L324.03 251.07L324.03 237.08Z" fill="#FFFFFF" fill-opacity="1.000000" fill-rule="nonzero"/>
	<path id="Vector" d="M324.03 237.08L324.03 251.07L299.47 251.07L299.47 237.08L324.03 237.08Z" stroke="#263238" stroke-opacity="1.000000" stroke-width="1.000000"/>
	<path id="Vector" d="M92.57 270.56L67.31 270.56L67.31 284.54L92.57 284.54L92.57 270.56Z" fill="#FFFFFF" fill-opacity="1.000000" fill-rule="nonzero"/>
	<path id="Vector" d="M92.57 270.56L92.57 284.54L67.31 284.54L67.31 270.56L92.57 270.56Z" stroke="#263238" stroke-opacity="1.000000" stroke-width="1.000000"/>
	<path id="Vector" d="M87.76 253.71L67.31 253.71L67.31 267.7L87.76 267.7L87.76 253.71Z" fill="#FFFFFF" fill-opacity="1.000000" fill-rule="nonzero"/>
	<path id="Vector" d="M87.76 253.71L87.76 267.7L67.31 267.7L67.31 253.71L87.76 253.71Z" stroke="#263238" stroke-opacity="1.000000" stroke-width="1.000000"/>
	<path id="Vector" d="M81.29 236.66L67.31 236.66L67.31 250.65L81.29 250.65L81.29 236.66Z" fill="#FFFFFF" fill-opacity="1.000000" fill-rule="nonzero"/>
	<path id="Vector" d="M81.29 236.66L81.29 250.65L67.31 250.65L67.31 236.66L81.29 236.66Z" stroke="#263238" stroke-opacity="1.000000" stroke-width="1.000000"/>
	<path id="Vector" d="M99.15 236.66L85.17 236.66L85.17 250.65L99.15 250.65L99.15 236.66Z" fill="#FFFFFF" fill-opacity="1.000000" fill-rule="nonzero"/>
	<path id="Vector" d="M99.15 236.66L99.15 250.65L85.17 250.65L85.17 236.66L99.15 236.66Z" stroke="#263238" stroke-opacity="1.000000" stroke-width="1.000000"/>
	<path id="Vector" d="M117 236.66L103.01 236.66L103.01 250.65L117 250.65L117 236.66Z" fill="#FFFFFF" fill-opacity="1.000000" fill-rule="nonzero"/>
	<path id="Vector" d="M117 236.66L117 250.65L103.01 250.65L103.01 236.66L117 236.66Z" stroke="#263238" stroke-opacity="1.000000" stroke-width="1.000000"/>
	<path id="Vector" d="M134.84 236.66L120.86 236.66L120.86 250.65L134.84 250.65L134.84 236.66Z" fill="#FFFFFF" fill-opacity="1.000000" fill-rule="nonzero"/>
	<path id="Vector" d="M134.84 236.66L134.84 250.65L120.86 250.65L120.86 236.66L134.84 236.66Z" stroke="#263238" stroke-opacity="1.000000" stroke-width="1.000000"/>
	<path id="Vector" d="M152.7 236.66L138.72 236.66L138.72 250.65L152.7 250.65L152.7 236.66Z" fill="#FFFFFF" fill-opacity="1.000000" fill-rule="nonzero"/>
	<path id="Vector" d="M152.7 236.66L152.7 250.65L138.72 250.65L138.72 236.66L152.7 236.66Z" stroke="#263238" stroke-opacity="1.000000" stroke-width="1.000000"/>
	<path id="Vector" d="M170.55 236.66L156.57 236.66L156.57 250.65L170.55 250.65L170.55 236.66Z" fill="#FFFFFF" fill-opacity="1.000000" fill-rule="nonzero"/>
	<path id="Vector" d="M170.55 236.66L170.55 250.65L156.57 250.65L156.57 236.66L170.55 236.66Z" stroke="#263238" stroke-opacity="1.000000" stroke-width="1.000000"/>
	<path id="Vector" d="M188.39 236.66L174.41 236.66L174.41 250.65L188.39 250.65L188.39 236.66Z" fill="#FFFFFF" fill-opacity="1.000000" fill-rule="nonzero"/>
	<path id="Vector" d="M188.39 236.66L188.39 250.65L174.41 250.65L174.41 236.66L188.39 236.66Z" stroke="#263238" stroke-opacity="1.000000" stroke-width="1.000000"/>
	<path id="Vector" d="M206.25 236.66L192.27 236.66L192.27 250.65L206.25 250.65L206.25 236.66Z" fill="#FFFFFF" fill-opacity="1.000000" fill-rule="nonzero"/>
	<path id="Vector" d="M206.25 236.66L206.25 250.65L192.27 250.65L192.27 236.66L206.25 236.66Z" stroke="#263238" stroke-opacity="1.000000" stroke-width="1.000000"/>
	<path id="Vector" d="M224.1 236.66L210.12 236.66L210.12 250.65L224.1 250.65L224.1 236.66Z" fill="#FFFFFF" fill-opacity="1.000000" fill-rule="nonzero"/>
	<path id="Vector" d="M224.1 236.66L224.1 250.65L210.12 250.65L210.12 236.66L224.1 236.66Z" stroke="#263238" stroke-opacity="1.000000" stroke-width="1.000000"/>
	<path id="Vector" d="M241.96 236.66L227.98 236.66L227.98 250.65L241.96 250.65L241.96 236.66Z" fill="#FFFFFF" fill-opacity="1.000000" fill-rule="nonzero"/>
	<path id="Vector" d="M241.96 236.66L241.96 250.65L227.98 250.65L227.98 236.66L241.96 236.66Z" stroke="#263238" stroke-opacity="1.000000" stroke-width="1.000000"/>
	<path id="Vector" d="M259.81 236.66L245.82 236.66L245.82 250.65L259.81 250.65L259.81 236.66Z" fill="#FFFFFF" fill-opacity="1.000000" fill-rule="nonzero"/>
	<path id="Vector" d="M259.81 236.66L259.81 250.65L245.82 250.65L245.82 236.66L259.81 236.66Z" stroke="#263238" stroke-opacity="1.000000" stroke-width="1.000000"/>
	<path id="Vector" d="M277.65 236.66L263.67 236.66L263.67 250.65L277.65 250.65L277.65 236.66Z" fill="#FFFFFF" fill-opacity="1.000000" fill-rule="nonzero"/>
	<path id="Vector" d="M277.65 236.66L277.65 250.65L263.67 250.65L263.67 236.66L277.65 236.66Z" stroke="#263238" stroke-opacity="1.000000" stroke-width="1.000000"/>
	<path id="Vector" d="M295.51 236.66L281.53 236.66L281.53 250.65L295.51 250.65L295.51 236.66Z" fill="#FFFFFF" fill-opacity="1.000000" fill-rule="nonzero"/>
	<path id="Vector" d="M295.51 236.66L295.51 250.65L281.53 250.65L281.53 236.66L295.51 236.66Z" stroke="#263238" stroke-opacity="1.000000" stroke-width="1.000000"/>
	<path id="Vector" d="M81.29 305.05L67.31 305.05L67.31 319.04L81.29 319.04L81.29 305.05Z" fill="#FFFFFF" fill-opacity="1.000000" fill-rule="nonzero"/>
	<path id="Vector" d="M81.29 305.05L81.29 319.04L67.31 319.04L67.31 305.05L81.29 305.05Z" stroke="#263238" stroke-opacity="1.000000" stroke-width="1.000000"/>
	<path id="Vector" d="M99.15 305.05L85.17 305.05L85.17 319.04L99.15 319.04L99.15 305.05Z" fill="#FFFFFF" fill-opacity="1.000000" fill-rule="nonzero"/>
	<path id="Vector" d="M99.15 305.05L99.15 319.04L85.17 319.04L85.17 305.05L99.15 305.05Z" stroke="#263238" stroke-opacity="1.000000" stroke-width="1.000000"/>
	<path id="Vector" d="M117 305.05L103.01 305.05L103.01 319.04L117 319.04L117 305.05Z" fill="#FFFFFF" fill-opacity="1.000000" fill-rule="nonzero"/>
	<path id="Vector" d="M117 305.05L117 319.04L103.01 319.04L103.01 305.05L117 305.05Z" stroke="#263238" stroke-opacity="1.000000" stroke-width="1.000000"/>
	<path id="Vector" d="M137.93 305.05L120.86 305.05L120.86 319.04L137.93 319.04L137.93 305.05Z" fill="#FFFFFF" fill-opacity="1.000000" fill-rule="nonzero"/>
	<path id="Vector" d="M137.93 305.05L137.93 319.04L120.86 319.04L120.86 305.05L137.93 305.05Z" stroke="#263238" stroke-opacity="1.000000" stroke-width="1.000000"/>
	<path id="Vector" d="M227.18 305.05L141.79 305.05L141.79 319.04L227.18 319.04L227.18 305.05Z" fill="#FFFFFF" fill-opacity="1.000000" fill-rule="nonzero"/>
	<path id="Vector" d="M227.18 305.05L227.18 319.04L141.79 319.04L141.79 305.05L227.18 305.05Z" stroke="#263238" stroke-opacity="1.000000" stroke-width="1.000000"/>
	<path id="Vector" d="M287.72 305.05L273.74 305.05L273.74 319.04L287.72 319.04L287.72 305.05Z" fill="#FFFFFF" fill-opacity="1.000000" fill-rule="nonzero"/>
	<path id="Vector" d="M287.72 305.05L287.72 319.04L273.74 319.04L273.74 305.05L287.72 305.05Z" stroke="#263238" stroke-opacity="1.000000" stroke-width="1.000000"/>
	<path id="Vector" d="M305.6 305.05L291.62 305.05L291.62 319.04L305.6 319.04L305.6 305.05Z" fill="#FFFFFF" fill-opacity="1.000000" fill-rule="nonzero"/>
	<path id="Vector" d="M305.6 305.05L305.6 319.04L291.62 319.04L291.62 305.05L305.6 305.05Z" stroke="#263238" stroke-opacity="1.000000" stroke-width="1.000000"/>
	<path id="Vector" d="M252.39 305.05L230.68 305.05L230.68 319.04L252.39 319.04L252.39 305.05Z" fill="#FFFFFF" fill-opacity="1.000000" fill-rule="nonzero"/>
	<path id="Vector" d="M252.39 305.05L252.39 319.04L230.68 319.04L230.68 305.05L252.39 305.05Z" stroke="#263238" stroke-opacity="1.000000" stroke-width="1.000000"/>
	<path id="Vector" d="M324.02 305.05L310.04 305.05L310.04 319.04L324.02 319.04L324.02 305.05Z" fill="#FFFFFF" fill-opacity="1.000000" fill-rule="nonzero"/>
	<path id="Vector" d="M324.02 305.05L324.02 319.04L310.04 319.04L310.04 305.05L324.02 305.05Z" stroke="#263238" stroke-opacity="1.000000" stroke-width="1.000000"/>
	<path id="Vector" d="M105.71 253.71L91.73 253.71L91.73 267.7L105.71 267.7L105.71 253.71Z" fill="#FFFFFF" fill-opacity="1.000000" fill-rule="nonzero"/>
	<path id="Vector" d="M105.71 253.71L105.71 267.7L91.73 267.7L91.73 253.71L105.71 253.71Z" stroke="#263238" stroke-opacity="1.000000" stroke-width="1.000000"/>
	<path id="Vector" d="M123.56 253.71L109.58 253.71L109.58 267.7L123.56 267.7L123.56 253.71Z" fill="#FFFFFF" fill-opacity="1.000000" fill-rule="nonzero"/>
	<path id="Vector" d="M123.56 253.71L123.56 267.7L109.58 267.7L109.58 253.71L123.56 253.71Z" stroke="#263238" stroke-opacity="1.000000" stroke-width="1.000000"/>
	<path id="Vector" d="M141.42 253.71L127.44 253.71L127.44 267.7L141.42 267.7L141.42 253.71Z" fill="#FFFFFF" fill-opacity="1.000000" fill-rule="nonzero"/>
	<path id="Vector" d="M141.42 253.71L141.42 267.7L127.44 267.7L127.44 253.71L141.42 253.71Z" stroke="#263238" stroke-opacity="1.000000" stroke-width="1.000000"/>
	<path id="Vector" d="M159.27 253.71L145.28 253.71L145.28 267.7L159.27 267.7L159.27 253.71Z" fill="#FFFFFF" fill-opacity="1.000000" fill-rule="nonzero"/>
	<path id="Vector" d="M159.27 253.71L159.27 267.7L145.28 267.7L145.28 253.71L159.27 253.71Z" stroke="#263238" stroke-opacity="1.000000" stroke-width="1.000000"/>
	<path id="Vector" d="M177.13 253.71L163.14 253.71L163.14 267.7L177.13 267.7L177.13 253.71Z" fill="#FFFFFF" fill-opacity="1.000000" fill-rule="nonzero"/>
	<path id="Vector" d="M177.13 253.71L177.13 267.7L163.14 267.7L163.14 253.71L177.13 253.71Z" stroke="#263238" stroke-opacity="1.000000" stroke-width="1.000000"/>
	<path id="Vector" d="M194.97 253.71L180.99 253.71L180.99 267.7L194.97 267.7L194.97 253.71Z" fill="#FFFFFF" fill-opacity="1.000000" fill-rule="nonzero"/>
	<path id="Vector" d="M194.97 253.71L194.97 267.7L180.99 267.7L180.99 253.71L194.97 253.71Z" stroke="#263238" stroke-opacity="1.000000" stroke-width="1.000000"/>
	<path id="Vector" d="M212.82 253.71L198.84 253.71L198.84 267.7L212.82 267.7L212.82 253.71Z" fill="#FFFFFF" fill-opacity="1.000000" fill-rule="nonzero"/>
	<path id="Vector" d="M212.82 253.71L212.82 267.7L198.84 267.7L198.84 253.71L212.82 253.71Z" stroke="#263238" stroke-opacity="1.000000" stroke-width="1.000000"/>
	<path id="Vector" d="M230.68 253.71L216.7 253.71L216.7 267.7L230.68 267.7L230.68 253.71Z" fill="#FFFFFF" fill-opacity="1.000000" fill-rule="nonzero"/>
	<path id="Vector" d="M230.68 253.71L230.68 267.7L216.7 267.7L216.7 253.71L230.68 253.71Z" stroke="#263238" stroke-opacity="1.000000" stroke-width="1.000000"/>
	<path id="Vector" d="M248.52 253.71L234.54 253.71L234.54 267.7L248.52 267.7L248.52 253.71Z" fill="#FFFFFF" fill-opacity="1.000000" fill-rule="nonzero"/>
	<path id="Vector" d="M248.52 253.71L248.52 267.7L234.54 267.7L234.54 253.71L248.52 253.71Z" stroke="#263238" stroke-opacity="1.000000" stroke-width="1.000000"/>
	<path id="Vector" d="M266.37 253.71L252.39 253.71L252.39 267.7L266.37 267.7L266.37 253.71Z" fill="#FFFFFF" fill-opacity="1.000000" fill-rule="nonzero"/>
	<path id="Vector" d="M266.37 253.71L266.37 267.7L252.39 267.7L252.39 253.71L266.37 253.71Z" stroke="#263238" stroke-opacity="1.000000" stroke-width="1.000000"/>
	<path id="Vector" d="M284.23 253.71L270.25 253.71L270.25 267.7L284.23 267.7L284.23 253.71Z" fill="#FFFFFF" fill-opacity="1.000000" fill-rule="nonzero"/>
	<path id="Vector" d="M284.23 253.71L284.23 267.7L270.25 267.7L270.25 253.71L284.23 253.71Z" stroke="#263238" stroke-opacity="1.000000" stroke-width="1.000000"/>
	<path id="Vector" d="M302.08 253.71L288.1 253.71L288.1 267.7L302.08 267.7L302.08 253.71Z" fill="#FFFFFF" fill-opacity="1.000000" fill-rule="nonzero"/>
	<path id="Vector" d="M302.08 253.71L302.08 267.7L288.1 267.7L288.1 253.71L302.08 253.71Z" stroke="#263238" stroke-opacity="1.000000" stroke-width="1.000000"/>
	<path id="Vector" d="M324.02 253.71L324.02 284.76L310.04 284.76L310.04 267.7L305.94 267.7L305.94 253.71L324.02 253.71Z" fill="#FFFFFF" fill-opacity="1.000000" fill-rule="nonzero"/>
	<path id="Vector" d="M324.02 284.76L310.04 284.76L310.04 267.7L305.94 267.7L305.94 253.71L324.02 253.71L324.02 284.76Z" stroke="#263238" stroke-opacity="1.000000" stroke-width="1.000000"/>
	<path id="Vector" d="M109.81 270.76L95.83 270.76L95.83 284.74L109.81 284.74L109.81 270.76Z" fill="#FFFFFF" fill-opacity="1.000000" fill-rule="nonzero"/>
	<path id="Vector" d="M109.81 270.76L109.81 284.74L95.83 284.74L95.83 270.76L109.81 270.76Z" stroke="#263238" stroke-opacity="1.000000" stroke-width="1.000000"/>
	<path id="Vector" d="M127.66 270.76L113.68 270.76L113.68 284.74L127.66 284.74L127.66 270.76Z" fill="#FFFFFF" fill-opacity="1.000000" fill-rule="nonzero"/>
	<path id="Vector" d="M127.66 270.76L127.66 284.74L113.68 284.74L113.68 270.76L127.66 270.76Z" stroke="#263238" stroke-opacity="1.000000" stroke-width="1.000000"/>
	<path id="Vector" d="M145.51 270.76L131.52 270.76L131.52 284.74L145.51 284.74L145.51 270.76Z" fill="#FFFFFF" fill-opacity="1.000000" fill-rule="nonzero"/>
	<path id="Vector" d="M145.51 270.76L145.51 284.74L131.52 284.74L131.52 270.76L145.51 270.76Z" stroke="#263238" stroke-opacity="1.000000" stroke-width="1.000000"/>
	<path id="Vector" d="M163.37 270.76L149.38 270.76L149.38 284.74L163.37 284.74L163.37 270.76Z" fill="#FFFFFF" fill-opacity="1.000000" fill-rule="nonzero"/>
	<path id="Vector" d="M163.37 270.76L163.37 284.74L149.38 284.74L149.38 270.76L163.37 270.76Z" stroke="#263238" stroke-opacity="1.000000" stroke-width="1.000000"/>
	<path id="Vector" d="M181.21 270.76L167.23 270.76L167.23 284.74L181.21 284.74L181.21 270.76Z" fill="#FFFFFF" fill-opacity="1.000000" fill-rule="nonzero"/>
	<path id="Vector" d="M181.21 270.76L181.21 284.74L167.23 284.74L167.23 270.76L181.21 270.76Z" stroke="#263238" stroke-opacity="1.000000" stroke-width="1.000000"/>
	<path id="Vector" d="M199.07 270.76L185.09 270.76L185.09 284.74L199.07 284.74L199.07 270.76Z" fill="#FFFFFF" fill-opacity="1.000000" fill-rule="nonzero"/>
	<path id="Vector" d="M199.07 270.76L199.07 284.74L185.09 284.74L185.09 270.76L199.07 270.76Z" stroke="#263238" stroke-opacity="1.000000" stroke-width="1.000000"/>
	<path id="Vector" d="M216.92 270.76L202.93 270.76L202.93 284.74L216.92 284.74L216.92 270.76Z" fill="#FFFFFF" fill-opacity="1.000000" fill-rule="nonzero"/>
	<path id="Vector" d="M216.92 270.76L216.92 284.74L202.93 284.74L202.93 270.76L216.92 270.76Z" stroke="#263238" stroke-opacity="1.000000" stroke-width="1.000000"/>
	<path id="Vector" d="M234.76 270.76L220.78 270.76L220.78 284.74L234.76 284.74L234.76 270.76Z" fill="#FFFFFF" fill-opacity="1.000000" fill-rule="nonzero"/>
	<path id="Vector" d="M234.76 270.76L234.76 284.74L220.78 284.74L220.78 270.76L234.76 270.76Z" stroke="#263238" stroke-opacity="1.000000" stroke-width="1.000000"/>
	<path id="Vector" d="M252.62 270.76L238.64 270.76L238.64 284.74L252.62 284.74L252.62 270.76Z" fill="#FFFFFF" fill-opacity="1.000000" fill-rule="nonzero"/>
	<path id="Vector" d="M252.62 270.76L252.62 284.74L238.64 284.74L238.64 270.76L252.62 270.76Z" stroke="#263238" stroke-opacity="1.000000" stroke-width="1.000000"/>
	<path id="Vector" d="M270.47 270.76L256.49 270.76L256.49 284.74L270.47 284.74L270.47 270.76Z" fill="#FFFFFF" fill-opacity="1.000000" fill-rule="nonzero"/>
	<path id="Vector" d="M270.47 270.76L270.47 284.74L256.49 284.74L256.49 270.76L270.47 270.76Z" stroke="#263238" stroke-opacity="1.000000" stroke-width="1.000000"/>
	<path id="Vector" d="M288.32 270.76L274.33 270.76L274.33 284.74L288.32 284.74L288.32 270.76Z" fill="#FFFFFF" fill-opacity="1.000000" fill-rule="nonzero"/>
	<path id="Vector" d="M288.32 270.76L288.32 284.74L274.33 284.74L274.33 270.76L288.32 270.76Z" stroke="#263238" stroke-opacity="1.000000" stroke-width="1.000000"/>
	<path id="Vector" d="M306.17 270.76L292.19 270.76L292.19 284.74L306.17 284.74L306.17 270.76Z" fill="#FFFFFF" fill-opacity="1.000000" fill-rule="nonzero"/>
	<path id="Vector" d="M306.17 270.76L306.17 284.74L292.19 284.74L292.19 270.76L306.17 270.76Z" stroke="#263238" stroke-opacity="1.000000" stroke-width="1.000000"/>
	<path id="Vector" d="M102.22 287.81L88.24 287.81L88.24 301.79L102.22 301.79L102.22 287.81Z" fill="#FFFFFF" fill-opacity="1.000000" fill-rule="nonzero"/>
	<path id="Vector" d="M102.22 287.81L102.22 301.79L88.24 301.79L88.24 287.81L102.22 287.81Z" stroke="#263238" stroke-opacity="1.000000" stroke-width="1.000000"/>
	<path id="Vector" d="M120.07 287.81L106.09 287.81L106.09 301.79L120.07 301.79L120.07 287.81Z" fill="#FFFFFF" fill-opacity="1.000000" fill-rule="nonzero"/>
	<path id="Vector" d="M120.07 287.81L120.07 301.79L106.09 301.79L106.09 287.81L120.07 287.81Z" stroke="#263238" stroke-opacity="1.000000" stroke-width="1.000000"/>
	<path id="Vector" d="M137.93 287.81L123.95 287.81L123.95 301.79L137.93 301.79L137.93 287.81Z" fill="#FFFFFF" fill-opacity="1.000000" fill-rule="nonzero"/>
	<path id="Vector" d="M137.93 287.81L137.93 301.79L123.95 301.79L123.95 287.81L137.93 287.81Z" stroke="#263238" stroke-opacity="1.000000" stroke-width="1.000000"/>
	<path id="Vector" d="M155.77 287.81L141.79 287.81L141.79 301.79L155.77 301.79L155.77 287.81Z" fill="#FFFFFF" fill-opacity="1.000000" fill-rule="nonzero"/>
	<path id="Vector" d="M155.77 287.81L155.77 301.79L141.79 301.79L141.79 287.81L155.77 287.81Z" stroke="#263238" stroke-opacity="1.000000" stroke-width="1.000000"/>
	<path id="Vector" d="M173.63 287.81L159.65 287.81L159.65 301.79L173.63 301.79L173.63 287.81Z" fill="#FFFFFF" fill-opacity="1.000000" fill-rule="nonzero"/>
	<path id="Vector" d="M173.63 287.81L173.63 301.79L159.65 301.79L159.65 287.81L173.63 287.81Z" stroke="#263238" stroke-opacity="1.000000" stroke-width="1.000000"/>
	<path id="Vector" d="M191.48 287.81L177.5 287.81L177.5 301.79L191.48 301.79L191.48 287.81Z" fill="#FFFFFF" fill-opacity="1.000000" fill-rule="nonzero"/>
	<path id="Vector" d="M191.48 287.81L191.48 301.79L177.5 301.79L177.5 287.81L191.48 287.81Z" stroke="#263238" stroke-opacity="1.000000" stroke-width="1.000000"/>
	<path id="Vector" d="M209.33 287.81L195.35 287.81L195.35 301.79L209.33 301.79L209.33 287.81Z" fill="#FFFFFF" fill-opacity="1.000000" fill-rule="nonzero"/>
	<path id="Vector" d="M209.33 287.81L209.33 301.79L195.35 301.79L195.35 287.81L209.33 287.81Z" stroke="#263238" stroke-opacity="1.000000" stroke-width="1.000000"/>
	<path id="Vector" d="M227.19 287.81L213.2 287.81L213.2 301.79L227.19 301.79L227.19 287.81Z" fill="#FFFFFF" fill-opacity="1.000000" fill-rule="nonzero"/>
	<path id="Vector" d="M227.19 287.81L227.19 301.79L213.2 301.79L213.2 287.81L227.19 287.81Z" stroke="#263238" stroke-opacity="1.000000" stroke-width="1.000000"/>
	<path id="Vector" d="M245.03 287.81L231.05 287.81L231.05 301.79L245.03 301.79L245.03 287.81Z" fill="#FFFFFF" fill-opacity="1.000000" fill-rule="nonzero"/>
	<path id="Vector" d="M245.03 287.81L245.03 301.79L231.05 301.79L231.05 287.81L245.03 287.81Z" stroke="#263238" stroke-opacity="1.000000" stroke-width="1.000000"/>
	<path id="Vector" d="M262.88 287.81L248.9 287.81L248.9 301.79L262.88 301.79L262.88 287.81Z" fill="#FFFFFF" fill-opacity="1.000000" fill-rule="nonzero"/>
	<path id="Vector" d="M262.88 287.81L262.88 301.79L248.9 301.79L248.9 287.81L262.88 287.81Z" stroke="#263238" stroke-opacity="1.000000" stroke-width="1.000000"/>
	<path id="Vector" d="M280.74 287.81L266.76 287.81L266.76 301.79L280.74 301.79L280.74 287.81Z" fill="#FFFFFF" fill-opacity="1.000000" fill-rule="nonzero"/>
	<path id="Vector" d="M280.74 287.81L280.74 301.79L266.76 301.79L266.76 287.81L280.74 287.81Z" stroke="#263238" stroke-opacity="1.000000" stroke-width="1.000000"/>
	<path id="Vector" d="M109.81 220.46L95.83 220.46L95.83 234.44L109.81 234.44L109.81 220.46Z" fill="#FFFFFF" fill-opacity="1.000000" fill-rule="nonzero"/>
	<path id="Vector" d="M109.81 220.46L109.81 234.44L95.83 234.44L95.83 220.46L109.81 220.46Z" stroke="#263238" stroke-opacity="1.000000" stroke-width="1.000000"/>
	<path id="Vector" d="M127.66 220.46L113.68 220.46L113.68 234.44L127.66 234.44L127.66 220.46Z" fill="#FFFFFF" fill-opacity="1.000000" fill-rule="nonzero"/>
	<path id="Vector" d="M127.66 220.46L127.66 234.44L113.68 234.44L113.68 220.46L127.66 220.46Z" stroke="#263238" stroke-opacity="1.000000" stroke-width="1.000000"/>
	<path id="Vector" d="M145.51 220.46L131.52 220.46L131.52 234.44L145.51 234.44L145.51 220.46Z" fill="#FFFFFF" fill-opacity="1.000000" fill-rule="nonzero"/>
	<path id="Vector" d="M145.51 220.46L145.51 234.44L131.52 234.44L131.52 220.46L145.51 220.46Z" stroke="#263238" stroke-opacity="1.000000" stroke-width="1.000000"/>
	<path id="Vector" d="M163.37 220.46L149.38 220.46L149.38 234.44L163.37 234.44L163.37 220.46Z" fill="#FFFFFF" fill-opacity="1.000000" fill-rule="nonzero"/>
	<path id="Vector" d="M163.37 220.46L163.37 234.44L149.38 234.44L149.38 220.46L163.37 220.46Z" stroke="#263238" stroke-opacity="1.000000" stroke-width="1.000000"/>
	<path id="Vector" d="M181.21 220.46L167.23 220.46L167.23 234.44L181.21 234.44L181.21 220.46Z" fill="#FFFFFF" fill-opacity="1.000000" fill-rule="nonzero"/>
	<path id="Vector" d="M181.21 220.46L181.21 234.44L167.23 234.44L167.23 220.46L181.21 220.46Z" stroke="#263238" stroke-opacity="1.000000" stroke-width="1.000000"/>
	<path id="Vector" d="M199.07 220.46L185.09 220.46L185.09 234.44L199.07 234.44L199.07 220.46Z" fill="#FFFFFF" fill-opacity="1.000000" fill-rule="nonzero"/>
	<path id="Vector" d="M199.07 220.46L199.07 234.44L185.09 234.44L185.09 220.46L199.07 220.46Z" stroke="#263238" stroke-opacity="1.000000" stroke-width="1.000000"/>
	<path id="Vector" d="M216.92 220.46L202.93 220.46L202.93 234.44L216.92 234.44L216.92 220.46Z" fill="#FFFFFF" fill-opacity="1.000000" fill-rule="nonzero"/>
	<path id="Vector" d="M216.92 220.46L216.92 234.44L202.93 234.44L202.93 220.46L216.92 220.46Z" stroke="#263238" stroke-opacity="1.000000" stroke-width="1.000000"/>
	<path id="Vector" d="M234.76 220.46L220.78 220.46L220.78 234.44L234.76 234.44L234.76 220.46Z" fill="#FFFFFF" fill-opacity="1.000000" fill-rule="nonzero"/>
	<path id="Vector" d="M234.76 220.46L234.76 234.44L220.78 234.44L220.78 220.46L234.76 220.46Z" stroke="#263238" stroke-opacity="1.000000" stroke-width="1.000000"/>
	<path id="Vector" d="M252.62 220.46L238.64 220.46L238.64 234.44L252.62 234.44L252.62 220.46Z" fill="#FFFFFF" fill-opacity="1.000000" fill-rule="nonzero"/>
	<path id="Vector" d="M252.62 220.46L252.62 234.44L238.64 234.44L238.64 220.46L252.62 220.46Z" stroke="#263238" stroke-opacity="1.000000" stroke-width="1.000000"/>
	<path id="Vector" d="M270.47 220.46L256.49 220.46L256.49 234.44L270.47 234.44L270.47 220.46Z" fill="#FFFFFF" fill-opacity="1.000000" fill-rule="nonzero"/>
	<path id="Vector" d="M270.47 220.46L270.47 234.44L256.49 234.44L256.49 220.46L270.47 220.46Z" stroke="#263238" stroke-opacity="1.000000" stroke-width="1.000000"/>
	<path id="Vector" d="M288.32 220.46L274.33 220.46L274.33 234.44L288.32 234.44L288.32 220.46Z" fill="#FFFFFF" fill-opacity="1.000000" fill-rule="nonzero"/>
	<path id="Vector" d="M288.32 220.46L288.32 234.44L274.33 234.44L274.33 220.46L288.32 220.46Z" stroke="#263238" stroke-opacity="1.000000" stroke-width="1.000000"/>
	<path id="Vector" d="M306.17 220.46L292.19 220.46L292.19 234.44L306.17 234.44L306.17 220.46Z" fill="#FFFFFF" fill-opacity="1.000000" fill-rule="nonzero"/>
	<path id="Vector" d="M306.17 220.46L306.17 234.44L292.19 234.44L292.19 220.46L306.17 220.46Z" stroke="#263238" stroke-opacity="1.000000" stroke-width="1.000000"/>
	<path id="Vector" d="M324.02 220.46L310.04 220.46L310.04 234.44L324.02 234.44L324.02 220.46Z" fill="#FFFFFF" fill-opacity="1.000000" fill-rule="nonzero"/>
	<path id="Vector" d="M324.02 220.46L324.02 234.44L310.04 234.44L310.04 220.46L324.02 220.46Z" stroke="#263238" stroke-opacity="1.000000" stroke-width="1.000000"/>
	<path id="Vector" d="M84.25 287.81L67.31 287.81L67.31 301.79L84.25 301.79L84.25 287.81Z" fill="#FFFFFF" fill-opacity="1.000000" fill-rule="nonzero"/>
	<path id="Vector" d="M84.25 287.81L84.25 301.79L67.31 301.79L67.31 287.81L84.25 287.81Z" stroke="#263238" stroke-opacity="1.000000" stroke-width="1.000000"/>
	<path id="Vector" d="M61.7 213.49L67.31 211.62L326.59 211.62L330.29 213.47L61.7 213.49Z" fill="#263238" fill-opacity="1.000000" fill-rule="nonzero"/>
	<path id="Vector" d="M296.85 347.52L296.99 296.04C297.55 293.97 298 286.33 299.19 281.01C301.22 272.09 293.25 261.33 292.69 260.98C290.46 259.58 285.71 259.6 285.71 259.6C285.71 259.6 281.05 254.29 276.9 252.62C274.04 251.6 271 251.23 267.98 251.51C264.78 248.87 261.21 246.71 257.38 245.09C255.89 244.53 254.26 244.39 252.69 244.68C251.12 244.98 249.66 245.7 248.47 246.77L243.23 254.92C242.46 256.08 242.12 257.46 242.24 258.84C242.37 260.22 242.97 261.52 243.94 262.51C246.43 264.96 249.62 263.82 251.23 263.82C253.45 263.82 254.29 261.3 254.29 261.3C254.29 261.3 254.83 274.4 254.29 276.08C253.72 277.75 249.55 281.65 249.55 281.65L235.58 263.21C230.78 256.7 226.59 249.78 223.04 242.51C222.64 241.62 222.11 240.8 221.47 240.06C219.02 237.3 213.8 236.49 212.43 241.61C212.1 243.25 212.18 244.95 212.66 246.55C218.48 263.76 225.9 276.77 232.67 290.32C236.68 298.37 235.19 298.27 237.2 301.91C236.96 302.07 237.08 302.37 236.82 302.52C235.85 306.44 235.16 310.36 234.17 314.27C233.35 309.36 231.85 304.59 229.71 300.09C230.28 297.37 230.48 294.58 230.33 291.8C230.15 288.99 228.9 286.36 226.84 284.45C225.68 283.52 224.26 282.96 222.77 282.87C221.71 282.8 220.66 283.13 219.83 283.8C219 284.48 218.46 285.43 218.3 286.49C218.07 288.62 217.68 290.73 217.14 292.8C216.25 295.51 215.17 298.15 213.93 300.71C213.93 305.91 217.14 305.06 219.48 325.95C221.29 342.25 242.25 352.98 253.66 364.73L267.17 404.65C284.17 396.65 291.17 392.65 305.67 381.65L296.85 347.52Z" fill="#FFFFFF" fill-opacity="1.000000" fill-rule="nonzero"/>
	<path id="Vector" d="M227.13 319.34C227.27 319.08 227.38 318.83 227.5 318.56C227.38 318.65 227.28 318.76 227.21 318.9C227.15 319.04 227.12 319.19 227.13 319.34Z" fill="#92E3A9" fill-opacity="1.000000" fill-rule="nonzero"/>
	<path id="Vector" d="M260.69 247.31C259.09 246.06 257.19 245.25 255.18 244.98L260.69 247.31Z" fill="#92E3A9" fill-opacity="1.000000" fill-rule="nonzero"/>
	<path id="Vector" d="M254.49 252.76L254.56 253.34C254.6 253.14 254.57 252.94 254.49 252.76Z" fill="#92E3A9" fill-opacity="1.000000" fill-rule="nonzero"/>
	<g opacity="0.500000">
		<g opacity="0.500000">
			<path id="Vector" d="M227.13 319.34C227.27 319.08 227.38 318.83 227.5 318.56C227.38 318.65 227.28 318.76 227.21 318.9C227.15 319.04 227.12 319.19 227.13 319.34Z" fill="#FFFFFF" fill-opacity="1.000000" fill-rule="nonzero"/>
		</g>
		<g opacity="0.500000">
			<path id="Vector" d="M260.69 247.31C259.09 246.06 257.19 245.25 255.18 244.98L260.69 247.31Z" fill="#FFFFFF" fill-opacity="1.000000" fill-rule="nonzero"/>
		</g>
		<g opacity="0.500000">
			<path id="Vector" d="M254.48 252.76L254.55 253.34C254.6 253.14 254.57 252.94 254.48 252.76Z" fill="#FFFFFF" fill-opacity="1.000000" fill-rule="nonzero"/>
		</g>
		<g opacity="0.500000">
			<path id="Vector" d="M260.9 303.26C260.38 301.95 257.84 298.2 256.36 300.8L260.9 303.26Z" fill="#FFFFFF" fill-opacity="1.000000" fill-rule="nonzero"/>
		</g>
	</g>
	<path id="Vector" d="M217.62 296.99C216.26 298.06 215.11 299.36 214.2 300.82L217.62 296.99Z" fill="#FFFFFF" fill-opacity="1.000000" fill-rule="nonzero"/>
	<path id="Vector" d="M267.17 404.65L253.77 364.69C242.37 352.94 221.41 342.2 219.59 325.92C217.27 305.03 214.04 305.88 214.04 300.67C215.29 298.11 216.36 295.47 217.25 292.77C217.8 290.69 218.19 288.58 218.42 286.46C218.57 285.4 219.12 284.44 219.95 283.77C220.77 283.1 221.83 282.76 222.89 282.83C224.37 282.93 225.79 283.48 226.95 284.42C229.02 286.32 230.27 288.96 230.44 291.76C230.6 294.54 230.39 297.33 229.83 300.06C231.97 304.55 233.47 309.33 234.29 314.24C235.28 310.32 235.96 306.4 236.94 302.49C237.2 302.34 237.08 302.04 237.31 301.87C235.31 298.24 236.8 298.38 232.78 290.29C226.02 276.73 218.6 263.73 212.77 246.52C212.29 244.91 212.22 243.22 212.55 241.58C213.91 236.45 219.14 237.27 221.59 240.03C222.22 240.77 222.75 241.59 223.16 242.47C226.7 249.74 230.9 256.67 235.7 263.18L249.67 281.61C249.67 281.61 253.83 277.71 254.4 276.04C254.95 274.37 254.4 261.27 254.4 261.27C254.4 261.27 253.57 263.78 251.34 263.78C249.74 263.78 246.55 264.95 244.05 262.48C243.08 261.5 242.46 260.22 242.31 258.85C242.16 257.47 242.49 256.09 243.23 254.92L248.43 246.77C249.62 245.7 251.08 244.98 252.66 244.68C254.23 244.39 255.85 244.53 257.35 245.09C261.17 246.71 264.74 248.87 267.94 251.51C270.96 251.23 274 251.6 276.86 252.62C281.05 254.31 285.67 259.6 285.67 259.6C285.67 259.6 290.41 259.6 292.66 260.98C293.22 261.33 301.18 272.09 299.15 281.01C297.99 286.33 297.51 293.97 296.95 296.04L296.81 347.52L306.17 381.65" stroke="#263238" stroke-opacity="1.000000" stroke-width="1.000000"/>
	<path id="Vector" d="M269.26 253.33C271.31 260.92 272.37 268.75 272.43 276.62C272.36 277.93 272.5 279.25 272.84 280.53C273.02 281.16 273.36 281.74 273.83 282.2C274.3 282.67 274.88 283.01 275.51 283.18" stroke="#263238" stroke-opacity="1.000000" stroke-width="1.000000"/>
	<path id="Vector" d="M285.72 260.98C289.21 268.27 285.64 284.54 285.9 285.7C286 286.28 286.24 286.83 286.58 287.31C286.92 287.79 287.35 288.19 287.86 288.49" stroke="#263238" stroke-opacity="1.000000" stroke-width="1.000000"/>
	<path id="Vector" d="M255.71 252.33C255.3 254.65 254.96 257.33 254.54 259.65C253.19 258.48 252.08 257.06 251.28 255.46C250.48 253.86 250.01 252.12 249.89 250.33" stroke="#263238" stroke-opacity="1.000000" stroke-width="1.000000"/>
	<path id="Vector" d="M233.4 314.46L230.89 315.57" stroke="#263238" stroke-opacity="1.000000" stroke-width="1.000000"/>
	<path id="Vector" d="M234.04 316.47C233.64 318.42 233.64 320.42 234.04 322.37" stroke="#263238" stroke-opacity="1.000000" stroke-width="1.000000"/>
	<path id="Vector" d="M248.76 294.71L251.54 299.73" stroke="#263238" stroke-opacity="1.000000" stroke-width="1.000000"/>
	<path id="Vector" d="M254.11 276.35L256.88 272.44" stroke="#263238" stroke-opacity="1.000000" stroke-width="1.000000"/>
	<path id="Vector" d="M293.08 294.71L292.24 297.78" stroke="#263238" stroke-opacity="1.000000" stroke-width="1.000000"/>
	<path id="Vector" d="M286.3 286.36C287.08 283.75 287.9 281.15 288.76 278.54" stroke="#263238" stroke-opacity="1.000000" stroke-width="1.000000"/>
	<path id="Vector" d="M294.45 272.45C295.19 272.06 296.05 271.98 296.84 272.23C297.64 272.48 298.3 273.03 298.69 273.76" stroke="#263238" stroke-opacity="1.000000" stroke-width="1.000000"/>
	<path id="Vector" d="M277.77 259.08C278.74 258.81 279.75 258.78 280.73 259.01C281.71 259.23 282.62 259.7 283.37 260.36" stroke="#263238" stroke-opacity="1.000000" stroke-width="1.000000"/>
	<path id="Vector" d="M225.92 266.85C226.82 265.85 227.94 265.09 229.2 264.62C230.45 264.15 231.8 263.97 233.13 264.12" stroke="#263238" stroke-opacity="1.000000" stroke-width="1.000000"/>
	<path id="Vector" d="M215.4 244.89C216.24 244.28 217.18 243.85 218.18 243.62C219.18 243.38 220.21 243.35 221.22 243.51" stroke="#263238" stroke-opacity="1.000000" stroke-width="1.000000"/>
	<path id="Vector" d="M217.62 296.99C216.26 298.06 215.11 299.36 214.2 300.82" stroke="#263238" stroke-opacity="1.000000" stroke-width="1.000000"/>
	<path id="Vector" d="M218.69 291.7C220.53 290.39 223.46 293.32 225.15 291.82C225.45 291.49 225.66 291.08 225.76 290.64C225.86 290.2 225.84 289.74 225.72 289.31C225.47 288.44 225.36 287.54 225.38 286.64" stroke="#263238" stroke-opacity="1.000000" stroke-width="1.000000"/>
	<path id="Vector" d="M270.6 283.63C272.84 288.28 273.29 293.59 271.88 298.55" stroke="#263238" stroke-opacity="1.000000" stroke-width="1.000000"/>
	<path id="Vector" d="M284.12 290.81C284.49 293.01 284.08 295.27 282.96 297.2" stroke="#263238" stroke-opacity="1.000000" stroke-width="1.000000"/>
	<path id="Vector" d="M167.12 290.16C166.62 287.83 163.35 288.19 163.35 288.19C152.35 288.83 150.87 306.07 150.87 306.07L146.92 317.89L145.76 300.12L145.87 277.22C145.87 277.22 149.2 255.3 147.72 251.87C147.39 250.92 146.77 250.1 145.96 249.5C145.15 248.91 144.18 248.57 143.17 248.54C136.77 246.93 136.4 256.17 136.4 256.17L130.99 275.01L128.71 295.33L126.87 294.34C126.87 294.34 126 272.78 126.37 272.42C126.75 272.06 128.96 257.52 128.96 257.52C128.96 257.52 130.12 254.82 131.67 251.37C132.11 250.4 132.33 249.35 132.33 248.29C132.33 247.23 132.11 246.18 131.67 245.21C129.07 239.91 123.67 242.38 122.55 245.21C121.24 248.08 119.77 250.88 118.13 253.58L111.96 270.45C112.19 274.27 110 293.1 110 293.1L107.78 292.1L104.21 281.04L106.93 269.71C106.93 269.71 112.88 263.19 111.84 259.35C110.81 255.5 105.81 256.64 105.81 256.64L95.73 268.7L92.76 268.7L85.78 277.57C82.61 287.09 82.04 297.28 84.14 307.09L85.74 314.57L85.74 362.98C85.74 362.98 80.96 370.73 80.96 371.47C80.96 371.81 76.43 380.02 73.67 387.65C85.69 395.51 98.67 402.15 114.17 408.65C118.58 396.22 126.1 379.25 128.96 376.15C134.62 369.99 145.7 358.17 145.7 358.17C145.7 358.17 158.28 337.94 159.76 331.21C160.92 325.69 163.93 315.68 164.95 312.25C165.19 311.47 165.29 310.65 165.23 309.83C165.15 308.02 164.98 304.49 164.98 301.38C164.98 296.89 167.6 292.45 167.12 290.16Z" fill="#FFFFFF" fill-opacity="1.000000" fill-rule="nonzero"/>
	<path id="Vector" d="M73.67 387.65C77.17 379.65 82.08 368.49 82.08 368.15C82.08 367.42 86.87 359.66 86.87 359.66L86.87 311.27L85.26 303.83C83.16 294.04 83.72 283.88 86.87 274.38L93.85 265.51L96.82 265.51L106.9 253.46C106.9 253.46 111.95 252.29 112.93 256.16C113.91 260.02 108.02 266.5 108.02 266.5L105.29 277.83L108.87 288.89L111.09 289.89C111.09 289.89 113.28 271.06 113.05 267.24L119.22 250.37C120.85 247.67 122.33 244.87 123.64 242C124.81 239.17 130.16 236.7 132.76 242C133.2 242.97 133.42 244.02 133.42 245.08C133.42 246.14 133.2 247.19 132.76 248.16C131.27 251.65 130.05 254.31 130.05 254.31C130.05 254.31 127.83 268.84 127.46 269.21C127.09 269.58 127.96 291.12 127.96 291.12L129.8 292.11L132.02 271.79L137.43 252.95C137.43 252.95 137.8 243.72 144.2 245.33C145.21 245.36 146.18 245.7 146.99 246.29C147.8 246.89 148.42 247.71 148.75 248.66C150.23 252.09 146.9 274.01 146.9 274.01L146.79 296.91L147.95 314.68L151.9 302.86C151.9 302.86 153.38 285.62 164.38 284.98C164.38 284.98 167.65 284.64 168.15 286.94C168.65 289.25 166.01 293.67 166.01 298.11C166.01 301.22 166.18 304.75 166.26 306.56C166.32 307.38 166.22 308.2 165.98 308.98C164.96 312.41 162.01 322.42 160.79 327.94C159.31 334.67 146.73 354.9 146.73 354.9C146.73 354.9 135.64 366.72 129.99 372.88C127.14 375.98 118.58 396.22 114.17 408.65" stroke="#263238" stroke-opacity="1.000000" stroke-width="1.000000"/>
	<path id="Vector" d="M110.93 291.67C111.24 292.83 111.25 294.04 110.96 295.21C110.67 296.37 110.08 297.44 109.27 298.31" fill="#FFFFFF" fill-opacity="1.000000" fill-rule="nonzero"/>
	<path id="Vector" d="M110.93 291.67C111.24 292.83 111.25 294.04 110.96 295.21C110.67 296.37 110.08 297.44 109.27 298.31" stroke="#263238" stroke-opacity="1.000000" stroke-width="1.000000"/>
	<path id="Vector" d="M92.15 307.95C93.75 305.47 95.31 302.07 94.88 299.16C94.04 293.44 91.38 286.86 92.61 281.2C93.35 277.59 94.11 273.97 94.85 270.36" fill="#FFFFFF" fill-opacity="1.000000" fill-rule="nonzero"/>
	<path id="Vector" d="M92.15 307.95C93.75 305.47 95.31 302.07 94.88 299.16C94.04 293.44 91.38 286.86 92.61 281.2C93.35 277.59 94.11 273.97 94.85 270.36" stroke="#263238" stroke-opacity="1.000000" stroke-width="1.000000"/>
	<path id="Vector" d="M138.57 253.94C140.47 253.44 142.48 253.44 144.39 253.94C144.39 253.41 144.39 252.87 144.39 252.33" stroke="#263238" stroke-opacity="1.000000" stroke-width="1.000000"/>
	<path id="Vector" d="M123.32 246.67C123.88 247.05 124.53 247.28 125.21 247.32C125.89 247.36 126.57 247.21 127.17 246.88C127.77 246.56 128.28 246.08 128.62 245.5C128.97 244.91 129.15 244.24 129.14 243.56" stroke="#263238" stroke-opacity="1.000000" stroke-width="1.000000"/>
	<path id="Vector" d="M165.36 287.1C163.75 287.51 162.33 288.47 161.36 289.82C160.38 291.16 159.91 292.81 160.01 294.47L162.86 295.32" stroke="#263238" stroke-opacity="1.000000" stroke-width="1.000000"/>
	<path id="Vector" d="M127.89 288.52C128.02 290.47 127.78 295.14 127.89 297.09" fill="#FFFFFF" fill-opacity="1.000000" fill-rule="nonzero"/>
	<path id="Vector" d="M127.89 288.52C128.02 290.47 127.78 295.14 127.89 297.09" stroke="#263238" stroke-opacity="1.000000" stroke-width="1.000000"/>
	<path id="Vector" d="M130.03 291.22C129.8 294.42 129.56 297.63 129.32 300.82C129.32 300.42 129.32 300.01 129.32 299.6" fill="#FFFFFF" fill-opacity="1.000000" fill-rule="nonzero"/>
	<path id="Vector" d="M130.03 291.22C129.8 294.42 129.56 297.63 129.32 300.82C129.32 300.42 129.32 300.01 129.32 299.6" stroke="#263238" stroke-opacity="1.000000" stroke-width="1.000000"/>
	<path id="Vector" d="M147.76 318.21C148.61 321.75 148.22 325.47 146.67 328.76" fill="#FFFFFF" fill-opacity="1.000000" fill-rule="nonzero"/>
	<path id="Vector" d="M147.76 318.21C148.61 321.75 148.22 325.47 146.67 328.76" stroke="#263238" stroke-opacity="1.000000" stroke-width="1.000000"/>
	<path id="Vector" d="M118.29 301.43C115.75 304.21 116.12 310.88 117.92 314.56" stroke="#263238" stroke-opacity="1.000000" stroke-width="1.000000"/>
	<path id="Vector" d="M137.04 306.02C137.06 309.15 135.95 312.18 133.93 314.56" stroke="#263238" stroke-opacity="1.000000" stroke-width="1.000000"/>
	<path id="Vector" d="M99.8 302.76C99.38 305.59 99.99 308.49 101.54 310.91" stroke="#263238" stroke-opacity="1.000000" stroke-width="1.000000"/>
	<path id="Vector" d="M89 311.46C88.88 313.67 89.52 315.86 90.79 317.67" stroke="#263238" stroke-opacity="1.000000" stroke-width="1.000000"/>
	<path id="Vector" d="M103.8 257.76C104.47 257.46 105.22 257.36 105.94 257.48C106.67 257.6 107.34 257.93 107.88 258.43L109.35 256.52" stroke="#263238" stroke-opacity="1.000000" stroke-width="1.000000"/>
	<path id="Vector" d="M115.75 266.32C116.73 265.73 117.89 265.51 119.02 265.7C120.15 265.89 121.17 266.48 121.91 267.36" stroke="#263238" stroke-opacity="1.000000" stroke-width="1.000000"/>
	<path id="Vector" d="M134.4 272.14C135.45 271.68 136.58 271.45 137.73 271.47C138.87 271.5 140 271.77 141.02 272.28" stroke="#263238" stroke-opacity="1.000000" stroke-width="1.000000"/>
	<path id="Vector" d="M92.9 281.91C93.52 280.88 94.42 280.04 95.5 279.5C96.58 278.97 97.8 278.75 99 278.89" stroke="#263238" stroke-opacity="1.000000" stroke-width="1.000000"/>
	<path id="Vector" d="M85.08 293.04C85.12 292.29 85.42 291.57 85.92 291.01C86.42 290.45 87.1 290.07 87.84 289.95" stroke="#263238" stroke-opacity="1.000000" stroke-width="1.000000"/>
	<path id="Vector" d="M391.08 14.37L0.5 16.21L6.4 7.37C7.79 5.26 9.68 3.53 11.9 2.33C14.13 1.13 16.61 0.5 19.13 0.5L372.53 0.5C374.82 0.49 377.08 1.01 379.14 1.99C381.21 2.98 383.02 4.42 384.45 6.2L391.08 14.37Z" fill="#FFFFFF" fill-opacity="1.000000" fill-rule="nonzero"/>
	<path id="Vector" d="M0.5 16.21L6.4 7.37C7.79 5.26 9.68 3.53 11.9 2.33C14.13 1.13 16.61 0.5 19.13 0.5L372.53 0.5C374.82 0.49 377.08 1.01 379.14 1.99C381.21 2.98 383.02 4.42 384.45 6.2L391.08 14.37L0.5 16.21Z" stroke="#263238" stroke-opacity="1.000000" stroke-width="1.000000" stroke-linejoin="round"/>
	<path id="Vector" d="M202.57 72.93L181.18 72.93C159.22 72.93 141.42 90.74 141.42 112.7L141.42 134.1C141.42 156.06 159.22 173.87 181.18 173.87L202.57 173.87C224.53 173.87 242.33 156.06 242.33 134.1L242.33 112.7C242.33 90.74 224.53 72.93 202.57 72.93Z" fill="#757575" fill-opacity="1.000000" fill-rule="nonzero"/>
	<path id="Vector" d="M202.57 72.93C224.53 72.93 242.33 90.74 242.33 112.7L242.33 134.1C242.33 156.06 224.53 173.87 202.57 173.87L181.18 173.87C159.22 173.87 141.42 156.06 141.42 134.1L141.42 112.7C141.42 90.74 159.22 72.93 181.18 72.93L202.57 72.93Z" stroke="#263238" stroke-opacity="1.000000" stroke-width="1.000000" stroke-linejoin="round"/>
	<path id="Vector" d="M159.75 131.94L159.75 146.28C159.75 148.44 160.61 150.52 162.14 152.05C163.67 153.57 165.74 154.43 167.9 154.43L217.11 154.43C219.27 154.43 221.33 153.58 222.86 152.07C224.38 150.55 225.25 148.49 225.26 146.34C225.33 139.88 225.67 131.94 225.67 131.94L159.75 131.94Z" fill="#999999" fill-opacity="1.000000" fill-rule="nonzero"/>
	<path id="Vector" d="M159.75 146.28C159.75 148.44 160.61 150.52 162.14 152.05C163.67 153.57 165.74 154.43 167.9 154.43L217.11 154.43C219.27 154.43 221.33 153.58 222.86 152.07C224.38 150.55 225.25 148.49 225.26 146.34C225.33 139.88 225.67 131.94 225.67 131.94L159.75 131.94L159.75 146.28Z" stroke="#263238" stroke-opacity="1.000000" stroke-width="1.000000" stroke-linejoin="round"/>
	<path id="Vector" d="M339.85 136.72L52.07 136.72C50.59 136.72 49.14 136.28 47.92 135.45C46.69 134.62 45.74 133.44 45.2 132.06L0.81 18.08C0.54 17.39 0.44 16.64 0.53 15.91C0.61 15.17 0.87 14.47 1.29 13.86C1.71 13.25 2.27 12.75 2.92 12.41C3.58 12.06 4.31 11.88 5.05 11.88L386.9 11.88C387.63 11.89 388.36 12.08 389 12.43C389.65 12.77 390.2 13.27 390.61 13.88C391.02 14.49 391.28 15.19 391.36 15.92C391.44 16.65 391.35 17.39 391.08 18.08L346.69 132.03C346.15 133.41 345.21 134.59 343.99 135.43C342.78 136.26 341.33 136.72 339.85 136.72Z" fill="#FFFFFF" fill-opacity="1.000000" fill-rule="nonzero"/>
	<path id="Vector" d="M52.07 136.72C50.59 136.73 49.14 136.28 47.92 135.45C46.69 134.62 45.74 133.44 45.2 132.06L0.81 18.08C0.54 17.39 0.44 16.64 0.53 15.91C0.61 15.17 0.87 14.47 1.29 13.86C1.71 13.25 2.27 12.75 2.92 12.41C3.58 12.06 4.31 11.88 5.05 11.88L386.9 11.88C387.63 11.89 388.36 12.08 389 12.43C389.65 12.77 390.2 13.27 390.61 13.88C391.02 14.49 391.28 15.19 391.36 15.92C391.44 16.65 391.35 17.39 391.08 18.08L346.69 132.03C346.15 133.41 345.21 134.59 343.99 135.43C342.78 136.26 341.33 136.72 339.85 136.72L52.07 136.72Z" stroke="#263238" stroke-opacity="1.000000" stroke-width="1.000000" stroke-linejoin="round"/>
	<path id="Vector" d="M342 126.79L49.24 126.79L8.96 19.1L382.09 19.1L342 126.79Z" fill="#FFFFFF" fill-opacity="1.000000" fill-rule="nonzero"/>
	<path id="Vector" d="M160.07 136.57L225.33 136.57L225.33 141.04L160.07 141.04L160.07 136.57Z" fill="#263238" fill-opacity="1.000000" fill-rule="evenodd"/>
	<path id="Vector" d="M299.24 122.18L92.5 122.18C91.34 122.18 90.29 121.67 90.08 121.01L60.67 27.57C60.35 26.52 61.27 25.67 62.73 25.67L329 25.67C330.47 25.67 331.39 26.52 331.05 27.57L301.66 121.01C301.44 121.65 300.37 122.18 299.24 122.18Z" fill="#38BFF2" fill-opacity="1.000000" fill-rule="nonzero"/>
	<path id="Vector" d="M297.16 120.05L94.6 120.05C94.22 120.05 93.85 119.93 93.54 119.7C93.24 119.47 93.01 119.15 92.91 118.79L68.97 40.24C68.88 39.97 68.86 39.68 68.9 39.41C68.95 39.13 69.06 38.86 69.22 38.63C69.39 38.41 69.61 38.22 69.86 38.1C70.11 37.97 70.39 37.9 70.67 37.91L321.06 37.91C321.35 37.9 321.63 37.97 321.88 38.1C322.13 38.22 322.35 38.41 322.51 38.63C322.68 38.86 322.79 39.13 322.83 39.41C322.88 39.68 322.85 39.97 322.76 40.24L298.85 118.79C298.74 119.15 298.52 119.47 298.22 119.7C297.91 119.93 297.54 120.05 297.16 120.05Z" fill="#263238" fill-opacity="1.000000" fill-rule="nonzero"/>
	<path id="Vector" d="M122.72 58.33L83.87 58.33C82.91 58.33 82.28 58.84 82.46 59.5C82.65 59.87 82.95 60.18 83.31 60.39C83.68 60.6 84.1 60.69 84.51 60.66L123.14 60.66C124.1 60.66 124.77 60.15 124.67 59.5C124.56 58.84 123.68 58.33 122.72 58.33Z" fill="#FFFFFF" fill-opacity="1.000000" fill-rule="nonzero"/>
	<path id="Vector" d="M124.01 65.42L90.98 65.42C90.03 65.42 89.41 65.92 89.58 66.59C89.76 66.96 90.04 67.27 90.39 67.47C90.75 67.68 91.16 67.78 91.57 67.75L124.48 67.75C125.42 67.75 126.09 67.25 125.98 66.59C125.88 65.92 124.96 65.42 124.01 65.42Z" fill="#FFFFFF" fill-opacity="1.000000" fill-rule="nonzero"/>
	<g opacity="0.500000">
		<path id="Vector" d="M125.27 72.27L87.79 72.27C86.85 72.27 86.25 72.75 86.41 73.34C86.6 73.7 86.89 73.99 87.24 74.18C87.59 74.38 87.99 74.47 88.39 74.44L125.64 74.44C126.56 74.44 127.23 73.96 127.12 73.36C127.02 72.77 126.2 72.27 125.27 72.27Z" fill="#FFFFFF" fill-opacity="1.000000" fill-rule="nonzero"/>
	</g>
	<path id="Vector" d="M126.48 78.88L104.47 78.88C103.56 78.88 102.93 79.35 103.07 79.92C103.21 80.49 104.06 80.96 104.97 80.96L126.87 80.96C127.78 80.96 128.43 80.49 128.32 79.92C128.22 79.35 127.4 78.88 126.48 78.88Z" fill="#FFFFFF" fill-opacity="1.000000" fill-rule="nonzero"/>
	<path id="Vector" d="M127.66 85.27L91.43 85.27C90.54 85.27 89.94 85.72 90.1 86.27C90.27 86.81 91.1 87.27 92 87.27L128.09 87.27C128.97 87.27 129.62 86.83 129.52 86.27C129.43 85.71 128.56 85.27 127.66 85.27Z" fill="#FFFFFF" fill-opacity="1.000000" fill-rule="nonzero"/>
	<path id="Vector" d="M128.79 91.45L99.54 91.45C98.66 91.45 98.06 91.88 98.2 92.41C98.34 92.95 99.17 93.38 100.04 93.38L129.15 93.38C130.02 93.38 130.65 92.95 130.56 92.41C130.46 91.88 129.67 91.45 128.79 91.45Z" fill="#FFFFFF" fill-opacity="1.000000" fill-rule="nonzero"/>
	<path id="Vector" d="M129.88 97.42L101.12 97.42C100.24 97.42 99.66 97.84 99.8 98.35C99.94 98.87 100.74 99.3 101.6 99.3L130.23 99.3C131.09 99.3 131.71 98.88 131.62 98.35C131.52 97.83 130.75 97.42 129.88 97.42Z" fill="#FFFFFF" fill-opacity="1.000000" fill-rule="nonzero"/>
	<path id="Vector" d="M130.94 103.2L99.51 103.2C98.66 103.2 98.08 103.61 98.22 104.11C98.36 104.61 99.15 105.01 100 105.01L131.23 105.01C132.08 105.01 132.7 104.61 132.61 104.11C132.51 103.61 131.8 103.2 130.94 103.2Z" fill="#FFFFFF" fill-opacity="1.000000" fill-rule="nonzero"/>
	<g opacity="0.500000">
		<path id="Vector" d="M131.98 108.8L111.67 108.8C110.84 108.8 110.25 109.19 110.37 109.68C110.49 110.17 111.27 110.56 112.09 110.56L132.27 110.56C133.11 110.56 133.71 110.16 133.63 109.68C133.55 109.21 132.82 108.8 131.98 108.8Z" fill="#FFFFFF" fill-opacity="1.000000" fill-rule="nonzero"/>
	</g>
	<g opacity="0.500000">
		<path id="Vector" d="M121.37 50.97L92.42 50.97C91.44 50.97 90.79 51.51 90.96 52.14C91.15 52.52 91.45 52.83 91.82 53.04C92.18 53.24 92.6 53.34 93.02 53.3L121.8 53.3C122.78 53.3 123.47 52.77 123.35 52.14C123.19 51.76 122.91 51.44 122.55 51.23C122.2 51.02 121.78 50.93 121.37 50.97Z" fill="#FFFFFF" fill-opacity="1.000000" fill-rule="nonzero"/>
	</g>
	<path id="Vector" d="M119.96 43.35L79.66 43.35C78.67 43.35 78.02 43.89 78.22 44.58C78.41 44.97 78.72 45.3 79.1 45.52C79.48 45.74 79.92 45.84 80.36 45.81L120.43 45.81C121.41 45.81 122.12 45.27 121.99 44.58C121.86 43.89 120.99 43.35 119.96 43.35Z" fill="#FFFFFF" fill-opacity="1.000000" fill-rule="nonzero"/>
	<path id="Vector" d="M132.97 114.22L99.57 114.22C98.74 114.22 98.18 114.61 98.31 115.07C98.44 115.54 99.22 115.93 100.04 115.93L133.28 115.93C134.1 115.93 134.7 115.54 134.62 115.07C134.54 114.61 133.79 114.22 132.97 114.22Z" fill="#FFFFFF" fill-opacity="1.000000" fill-rule="nonzero"/>
	<g opacity="0.500000">
		<path id="Vector" d="M136.37 60.92L143.9 60.92L143.53 58.04L135.94 58.04L136.37 60.92Z" fill="#FFFFFF" fill-opacity="1.000000" fill-rule="nonzero"/>
	</g>
	<g opacity="0.500000">
		<path id="Vector" d="M137.41 67.92L144.82 67.92L144.46 65.14L137 65.14L137.41 67.92Z" fill="#FFFFFF" fill-opacity="1.000000" fill-rule="nonzero"/>
	</g>
	<g opacity="0.500000">
		<path id="Vector" d="M138.43 74.68L145.7 74.68L145.35 72L138.03 72L138.43 74.68Z" fill="#FFFFFF" fill-opacity="1.000000" fill-rule="nonzero"/>
	</g>
	<g opacity="0.500000">
		<path id="Vector" d="M139.42 81.21L146.57 81.21L146.22 78.62L139.02 78.62L139.42 81.21Z" fill="#FFFFFF" fill-opacity="1.000000" fill-rule="nonzero"/>
	</g>
	<g opacity="0.500000">
		<path id="Vector" d="M140.36 87.51L147.39 87.51L147.05 85.02L139.99 85.02L140.36 87.51Z" fill="#FFFFFF" fill-opacity="1.000000" fill-rule="nonzero"/>
	</g>
	<g opacity="0.500000">
		<path id="Vector" d="M141.28 93.61L148.18 93.61L147.87 91.2L140.91 91.2L141.28 93.61Z" fill="#FFFFFF" fill-opacity="1.000000" fill-rule="nonzero"/>
	</g>
	<g opacity="0.500000">
		<path id="Vector" d="M142.16 99.53L148.96 99.53L148.66 97.18L141.82 97.18L142.16 99.53Z" fill="#FFFFFF" fill-opacity="1.000000" fill-rule="nonzero"/>
	</g>
	<g opacity="0.500000">
		<path id="Vector" d="M143.01 105.24L149.71 105.24L149.42 102.98L142.68 102.98L143.01 105.24Z" fill="#FFFFFF" fill-opacity="1.000000" fill-rule="nonzero"/>
	</g>
	<g opacity="0.500000">
		<path id="Vector" d="M143.85 110.78L150.44 110.78L150.15 108.58L143.53 108.58L143.85 110.78Z" fill="#FFFFFF" fill-opacity="1.000000" fill-rule="nonzero"/>
	</g>
	<g opacity="0.500000">
		<path id="Vector" d="M135.27 53.66L142.94 53.66L142.56 50.67L134.83 50.67L135.27 53.66Z" fill="#FFFFFF" fill-opacity="1.000000" fill-rule="nonzero"/>
	</g>
	<g opacity="0.500000">
		<path id="Vector" d="M134.14 46.13L141.96 46.13L141.56 43.03L133.68 43.03L134.14 46.13Z" fill="#FFFFFF" fill-opacity="1.000000" fill-rule="nonzero"/>
	</g>
	<g opacity="0.500000">
		<path id="Vector" d="M144.66 116.13L151.14 116.13L150.86 114L144.34 114L144.66 116.13Z" fill="#FFFFFF" fill-opacity="1.000000" fill-rule="nonzero"/>
	</g>
	<path id="Vector" d="M184.37 104.11C184.37 103.61 185.02 103.2 185.87 103.2L297.42 103.2C298.27 103.2 298.85 103.61 298.7 104.11C298.52 104.41 298.25 104.66 297.94 104.82C297.62 104.98 297.26 105.05 296.91 105.01L185.93 105.01C185.08 105.01 184.38 104.61 184.37 104.11Z" fill="#FFFFFF" fill-opacity="1.000000" fill-rule="nonzero"/>
	<path id="Vector" d="M298.55 99.3L236.78 99.3C235.92 99.3 235.26 98.88 235.32 98.35C235.38 97.83 236.13 97.42 237 97.42L299.11 97.42C299.97 97.42 300.55 97.84 300.4 98.35C300.22 98.67 299.94 98.93 299.62 99.1C299.29 99.27 298.92 99.34 298.55 99.3Z" fill="#FFFFFF" fill-opacity="1.000000" fill-rule="nonzero"/>
	<g opacity="0.500000">
		<path id="Vector" d="M222.12 99.3L202.91 99.3C202.05 99.3 201.35 98.88 201.36 98.35C201.37 97.83 202.07 97.42 202.95 97.42L222.27 97.42C223.13 97.42 223.81 97.84 223.76 98.35C223.72 98.87 222.98 99.3 222.12 99.3Z" fill="#FFFFFF" fill-opacity="1.000000" fill-rule="nonzero"/>
	</g>
	<path id="Vector" d="M262.21 93.38L175.09 93.38C174.21 93.38 173.48 92.95 173.45 92.41C173.41 91.88 174.1 91.45 174.98 91.45L262.57 91.45C263.45 91.45 264.09 91.88 263.98 92.41C263.88 92.95 263.1 93.38 262.21 93.38Z" fill="#FFFFFF" fill-opacity="1.000000" fill-rule="nonzero"/>
	<g opacity="0.500000">
		<path id="Vector" d="M156.88 91.45L163.09 91.45C163.96 91.45 164.72 91.88 164.76 92.41C164.81 92.95 164.13 93.38 163.26 93.38L157.08 93.38C156.2 93.38 155.45 92.95 155.39 92.41C155.33 91.88 156 91.45 156.88 91.45Z" fill="#FFFFFF" fill-opacity="1.000000" fill-rule="nonzero"/>
	</g>
	<path id="Vector" d="M274.82 86.27C274.71 86.83 273.89 87.27 273 87.27L190.9 87.27C190 87.27 189.28 86.83 189.27 86.27C189.26 85.71 189.98 85.27 190.86 85.27L273.41 85.27C274.31 85.27 274.94 85.72 274.82 86.27Z" fill="#FFFFFF" fill-opacity="1.000000" fill-rule="nonzero"/>
	<path id="Vector" d="M156.22 85.27L179.5 85.27C180.4 85.27 181.14 85.72 181.17 86.27C181.19 86.81 180.48 87.27 179.59 87.27L156.43 87.27C155.54 87.27 154.77 86.83 154.7 86.27C154.63 85.71 155.32 85.27 156.22 85.27Z" fill="#FFFFFF" fill-opacity="1.000000" fill-rule="nonzero"/>
	<path id="Vector" d="M155.53 78.88L245.1 78.88C246.01 78.88 246.68 79.35 246.6 79.92C246.52 80.49 245.73 80.96 244.82 80.96L155.75 80.96C154.85 80.96 154.06 80.49 154 79.92C153.95 79.35 154.62 78.88 155.53 78.88Z" fill="#FFFFFF" fill-opacity="1.000000" fill-rule="nonzero"/>
	<path id="Vector" d="M213.68 74.44C212.76 74.44 212.04 73.96 212.06 73.36C212.09 72.77 212.85 72.29 213.79 72.29L261.04 72.29C261.97 72.29 262.63 72.77 262.53 73.36C262.43 73.96 261.6 74.44 260.68 74.44L213.68 74.44Z" fill="#FFFFFF" fill-opacity="1.000000" fill-rule="nonzero"/>
	<path id="Vector" d="M154.83 72.27L195.73 72.27C196.66 72.27 197.41 72.75 197.41 73.34C197.41 73.94 196.66 74.44 195.73 74.44L155.06 74.44C154.13 74.44 153.34 73.96 153.27 73.36C153.2 72.77 153.9 72.27 154.83 72.27Z" fill="#FFFFFF" fill-opacity="1.000000" fill-rule="nonzero"/>
	<path id="Vector" d="M307.63 67.65L195.04 67.65C194.11 67.65 193.34 67.15 193.34 66.48C193.34 65.82 194.1 65.32 195.04 65.32L308.26 65.32C309.2 65.32 309.82 65.82 309.64 66.48C309.46 66.85 309.17 67.16 308.81 67.37C308.45 67.58 308.04 67.67 307.63 67.65Z" fill="#FFFFFF" fill-opacity="1.000000" fill-rule="nonzero"/>
	<path id="Vector" d="M309.59 60.63L210.63 60.63C209.68 60.63 208.92 60.11 208.94 59.46C208.97 58.81 209.76 58.3 210.72 58.3L310.35 58.3C311.31 58.3 311.94 58.81 311.75 59.46C311.55 59.85 311.24 60.18 310.85 60.39C310.46 60.59 310.02 60.68 309.59 60.63Z" fill="#FFFFFF" fill-opacity="1.000000" fill-rule="nonzero"/>
	<g opacity="0.500000">
		<path id="Vector" d="M311.73 53.36L290.96 53.36C289.98 53.36 289.32 52.82 289.47 52.2C289.65 51.82 289.94 51.5 290.31 51.29C290.68 51.08 291.1 50.99 291.52 51.03L312.38 51.03C313.36 51.03 314 51.57 313.8 52.2C313.6 52.57 313.3 52.88 312.94 53.08C312.57 53.29 312.15 53.39 311.73 53.36Z" fill="#FFFFFF" fill-opacity="1.000000" fill-rule="nonzero"/>
	</g>
	<path id="Vector" d="M276.46 53.36L200.29 53.36C199.33 53.36 198.53 52.82 198.55 52.2C198.56 51.57 199.34 51.03 200.32 51.03L276.99 51.03C277.97 51.03 278.65 51.57 278.51 52.2C278.34 52.58 278.05 52.9 277.68 53.11C277.31 53.32 276.89 53.41 276.46 53.36Z" fill="#FFFFFF" fill-opacity="1.000000" fill-rule="nonzero"/>
	<path id="Vector" d="M158.72 108.8L229.07 108.8C229.91 108.8 230.55 109.19 230.49 109.68C230.43 110.17 229.73 110.56 228.9 110.56L158.92 110.56C158.08 110.56 157.36 110.16 157.31 109.68C157.26 109.21 157.88 108.8 158.72 108.8Z" fill="#FFFFFF" fill-opacity="1.000000" fill-rule="nonzero"/>
	<path id="Vector" d="M159.3 114.22L267.38 114.22C268.2 114.22 268.79 114.61 268.69 115.07C268.58 115.54 267.85 115.93 267.02 115.93L159.49 115.93C158.66 115.93 157.95 115.54 157.9 115.07C157.86 114.61 158.47 114.22 159.3 114.22Z" fill="#FFFFFF" fill-opacity="1.000000" fill-rule="nonzero"/>
	<path id="Vector" d="M272.68 45.81L217.62 45.81C216.63 45.81 215.86 45.27 215.89 44.58C215.93 43.89 216.75 43.35 217.76 43.35L273.15 43.35C274.15 43.35 274.85 43.89 274.72 44.58C274.55 44.98 274.27 45.31 273.9 45.53C273.54 45.75 273.11 45.85 272.68 45.81Z" fill="#FFFFFF" fill-opacity="1.000000" fill-rule="nonzero"/>
	<g opacity="0.500000">
		<path id="Vector" d="M202.06 45.81L152 45.81C151.01 45.81 150.15 45.27 150.07 44.58C149.99 43.89 150.73 43.35 151.73 43.35L202.09 43.35C203.07 43.35 203.88 43.89 203.87 44.58C203.85 45.27 203.05 45.81 202.06 45.81Z" fill="#FFFFFF" fill-opacity="1.000000" fill-rule="nonzero"/>
	</g>
	<g opacity="0.500000">
		<path id="Vector" d="M244.67 108.8C245.51 108.8 246.14 109.19 246.07 109.68C246 110.17 245.27 110.56 244.43 110.56L238.99 110.56C238.16 110.56 237.53 110.16 237.59 109.68C237.65 109.21 238.37 108.8 239.21 108.8L244.67 108.8Z" fill="#FFFFFF" fill-opacity="1.000000" fill-rule="nonzero"/>
	</g>
	<g opacity="0.500000">
		<path id="Vector" d="M177.95 104.11C177.95 104.61 177.31 105.01 176.46 105.01L169.06 105.01C168.21 105.01 167.49 104.61 167.45 104.11C167.42 103.61 168.07 103.2 168.92 103.2L176.36 103.2C177.22 103.2 177.93 103.61 177.95 104.11Z" fill="#FFFFFF" fill-opacity="1.000000" fill-rule="nonzero"/>
	</g>
	<g opacity="0.500000">
		<path id="Vector" d="M267.3 79.92C267.2 80.49 266.38 80.96 265.47 80.96L256.81 80.96C255.91 80.96 255.25 80.49 255.33 79.92C255.42 79.35 256.24 78.88 257.15 78.88L265.86 78.88C266.77 78.88 267.42 79.35 267.3 79.92Z" fill="#FFFFFF" fill-opacity="1.000000" fill-rule="nonzero"/>
	</g>
	<g opacity="0.500000">
		<path id="Vector" d="M294.32 85.27C295.22 85.27 295.82 85.72 295.67 86.27C295.49 86.6 295.22 86.87 294.89 87.05C294.55 87.23 294.18 87.3 293.8 87.27L286.9 87.27C286 87.27 285.39 86.83 285.52 86.27C285.7 85.93 285.97 85.66 286.3 85.48C286.63 85.3 287.01 85.23 287.39 85.27L294.32 85.27Z" fill="#FFFFFF" fill-opacity="1.000000" fill-rule="nonzero"/>
	</g>
	<g opacity="0.500000">
		<path id="Vector" d="M181.41 67.65C180.48 67.65 179.7 67.15 179.66 66.48C179.63 65.82 180.39 65.32 181.33 65.32L188.67 65.32C189.62 65.32 190.39 65.82 190.4 66.48C190.41 67.15 189.65 67.65 188.72 67.65L181.41 67.65Z" fill="#FFFFFF" fill-opacity="1.000000" fill-rule="nonzero"/>
	</g>
	<path id="Vector" d="M81.41 31.79C81.57 32.18 81.63 32.61 81.58 33.03C81.54 33.45 81.38 33.85 81.14 34.19C80.89 34.54 80.57 34.81 80.18 34.99C79.8 35.18 79.38 35.26 78.96 35.23C77.94 35.17 76.97 34.81 76.15 34.2C75.33 33.59 74.72 32.75 74.37 31.79C74.2 31.4 74.13 30.98 74.17 30.55C74.21 30.13 74.36 29.72 74.61 29.37C74.85 29.02 75.18 28.74 75.56 28.55C75.94 28.36 76.37 28.28 76.8 28.3C77.83 28.35 78.82 28.72 79.64 29.34C80.46 29.96 81.08 30.82 81.41 31.79Z" fill="#FFFFFF" fill-opacity="1.000000" fill-rule="nonzero"/>
	<path id="Vector" d="M90.84 31.85C90.98 32.25 91.03 32.68 90.97 33.1C90.9 33.52 90.74 33.92 90.48 34.26C90.23 34.6 89.89 34.87 89.51 35.05C89.12 35.23 88.7 35.3 88.27 35.28C87.27 35.23 86.31 34.87 85.51 34.26C84.71 33.65 84.11 32.81 83.8 31.85C83.65 31.45 83.6 31.02 83.65 30.59C83.71 30.17 83.87 29.76 84.12 29.42C84.38 29.07 84.71 28.79 85.1 28.61C85.49 28.42 85.91 28.34 86.34 28.36C87.36 28.41 88.34 28.77 89.14 29.39C89.95 30.02 90.54 30.88 90.84 31.85Z" fill="#FFFFFF" fill-opacity="1.000000" fill-rule="nonzero"/>
	<path id="Vector" d="M100.42 31.79C100.55 32.21 100.58 32.64 100.5 33.07C100.42 33.49 100.24 33.89 99.97 34.23C99.7 34.57 99.36 34.84 98.96 35.01C98.57 35.19 98.13 35.26 97.7 35.23C96.71 35.18 95.75 34.83 94.97 34.21C94.19 33.6 93.62 32.75 93.34 31.79C93.2 31.38 93.17 30.95 93.24 30.52C93.31 30.09 93.48 29.69 93.74 29.35C94 29 94.35 28.73 94.74 28.54C95.13 28.36 95.56 28.28 95.99 28.3C97.01 28.33 97.99 28.69 98.78 29.32C99.58 29.95 100.15 30.81 100.42 31.79Z" fill="#FFFFFF" fill-opacity="1.000000" fill-rule="nonzero"/>
	<path id="Vector" d="M92.22 173.53L67.67 173.53C66.12 173.53 64.64 174.14 63.55 175.23C62.46 176.33 61.85 177.81 61.85 179.35L61.85 191.31C61.85 192.85 62.46 194.33 63.55 195.43C64.64 196.52 66.12 197.13 67.67 197.13L74.08 197.13L78.95 208.16L85.81 197.13L92.22 197.13C93.76 197.13 95.25 196.52 96.34 195.43C97.43 194.33 98.04 192.85 98.04 191.31L98.04 179.3C98.03 177.77 97.41 176.3 96.32 175.22C95.23 174.14 93.76 173.53 92.22 173.53Z" fill="#FFFFFF" fill-opacity="1.000000" fill-rule="nonzero"/>
	<path id="Vector" d="M67.67 173.53C66.12 173.53 64.64 174.14 63.55 175.23C62.46 176.33 61.85 177.81 61.85 179.35L61.85 191.31C61.85 192.85 62.46 194.33 63.55 195.43C64.64 196.52 66.12 197.13 67.67 197.13L74.08 197.13L78.95 208.16L85.81 197.13L92.22 197.13C93.76 197.13 95.25 196.52 96.34 195.43C97.43 194.33 98.04 192.85 98.04 191.31L98.04 179.3C98.03 177.77 97.41 176.3 96.32 175.22C95.23 174.14 93.76 173.53 92.22 173.53L67.67 173.53Z" stroke="#263238" stroke-opacity="1.000000" stroke-width="1.000000" stroke-linejoin="round"/>
	<path id="Vector" d="M76.53 180.4C76.53 180.09 76.65 179.79 76.87 179.58C77.09 179.36 77.38 179.23 77.69 179.23C77.99 179.23 78.27 179.35 78.49 179.55C78.7 179.75 78.84 180.02 78.86 180.32C78.86 180.63 78.73 180.92 78.51 181.14C78.3 181.36 78 181.48 77.69 181.48C77.4 181.48 77.11 181.37 76.9 181.17C76.68 180.97 76.55 180.69 76.53 180.4ZM76.78 182.83L78.66 182.83L78.66 190.82L76.75 190.82L76.78 182.83Z" fill="#263238" fill-opacity="1.000000" fill-rule="nonzero"/>
	<path id="Vector" d="M83.16 182.39L83.16 182.87L85.36 182.87L85.36 184.37L83.23 184.37L83.23 190.8L81.41 190.8L81.41 184.37L80.04 184.37L80.04 182.87L81.41 182.87L81.41 182.36C81.38 181.98 81.43 181.6 81.56 181.24C81.7 180.89 81.91 180.57 82.18 180.3C82.45 180.04 82.78 179.84 83.14 179.72C83.5 179.59 83.88 179.55 84.26 179.6C84.85 179.57 85.45 179.72 85.96 180.03L85.43 181.44C85.13 181.23 84.77 181.11 84.4 181.11C83.57 181.11 83.16 181.56 83.16 182.39Z" fill="#263238" fill-opacity="1.000000" fill-rule="nonzero"/>
	<path id="Vector" d="M166.99 175.21L142.42 175.21C140.88 175.21 139.4 175.82 138.31 176.91C137.21 178 136.6 179.48 136.6 181.03L136.6 192.98C136.6 194.52 137.21 196 138.31 197.09C139.4 198.18 140.88 198.8 142.42 198.8L148.85 198.8L153.7 209.82L160.56 198.8L166.99 198.8C168.53 198.8 170.01 198.18 171.1 197.09C172.19 196 172.81 194.52 172.81 192.98L172.81 180.98C172.79 179.45 172.18 177.98 171.08 176.89C169.99 175.81 168.52 175.21 166.99 175.21Z" fill="#FFFFFF" fill-opacity="1.000000" fill-rule="nonzero"/>
	<path id="Vector" d="M142.42 175.21C140.88 175.21 139.4 175.82 138.31 176.91C137.21 178 136.6 179.48 136.6 181.03L136.6 192.98C136.6 194.52 137.21 196 138.31 197.09C139.4 198.18 140.88 198.8 142.42 198.8L148.85 198.8L153.7 209.82L160.56 198.8L166.99 198.8C168.53 198.8 170.01 198.18 171.1 197.09C172.19 196 172.81 194.52 172.81 192.98L172.81 180.98C172.79 179.45 172.18 177.98 171.08 176.89C169.99 175.81 168.52 175.21 166.99 175.21L142.42 175.21Z" stroke="#263238" stroke-opacity="1.000000" stroke-width="1.000000" stroke-linejoin="round"/>
	<path id="Vector" d="M147.59 189.07L141.31 189.07C141.44 189.66 141.77 190.17 142.25 190.53C142.73 190.88 143.32 191.05 143.91 191C144.31 191.01 144.71 190.94 145.09 190.79C145.46 190.64 145.8 190.41 146.08 190.12L147.08 191.29C146.47 191.89 145.71 192.3 144.88 192.49C144.04 192.67 143.18 192.61 142.38 192.32C141.58 192.02 140.87 191.51 140.36 190.83C139.84 190.15 139.53 189.34 139.45 188.49C139.44 187.95 139.53 187.41 139.73 186.9C139.94 186.39 140.24 185.94 140.63 185.55C141.01 185.17 141.47 184.87 141.98 184.67C142.49 184.47 143.03 184.38 143.57 184.4C144.12 184.38 144.66 184.47 145.17 184.68C145.67 184.88 146.13 185.18 146.51 185.57C146.89 185.96 147.19 186.43 147.38 186.94C147.57 187.45 147.65 187.99 147.61 188.54C147.61 188.67 147.6 188.9 147.59 189.07ZM141.3 187.84L145.83 187.84C145.78 187.29 145.51 186.78 145.09 186.41C144.67 186.05 144.13 185.86 143.57 185.88C143.02 185.86 142.48 186.05 142.05 186.42C141.63 186.78 141.36 187.29 141.3 187.84Z" fill="#263238" fill-opacity="1.000000" fill-rule="nonzero"/>
	<path id="Vector" d="M149.41 181.38L151.26 181.38L151.26 192.47L149.38 192.47L149.41 181.38Z" fill="#263238" fill-opacity="1.000000" fill-rule="nonzero"/>
	<path id="Vector" d="M152.82 191.68L153.53 190.26C154.36 190.78 155.33 191.05 156.31 191.05C157.47 191.05 157.99 190.73 157.99 190.17C157.99 188.64 153.05 190.08 153.05 186.9C153.05 185.38 154.41 184.39 156.54 184.39C157.58 184.38 158.61 184.61 159.53 185.08L158.81 186.5C158.11 186.09 157.3 185.89 156.48 185.91C155.32 185.91 154.81 186.28 154.81 186.8C154.81 188.42 159.74 186.98 159.74 190.11C159.74 191.6 158.37 192.58 156.12 192.58C154.96 192.59 153.82 192.28 152.82 191.68Z" fill="#263238" fill-opacity="1.000000" fill-rule="nonzero"/>
	<path id="Vector" d="M168.91 189.07L162.63 189.07C162.75 189.66 163.09 190.17 163.56 190.53C164.04 190.88 164.63 191.05 165.23 191C165.63 191.01 166.03 190.94 166.4 190.79C166.78 190.64 167.11 190.41 167.39 190.12L168.39 191.29C167.79 191.89 167.03 192.3 166.19 192.49C165.36 192.67 164.49 192.61 163.69 192.32C162.89 192.02 162.19 191.51 161.67 190.83C161.16 190.15 160.84 189.34 160.77 188.49C160.75 187.95 160.85 187.41 161.05 186.9C161.25 186.39 161.56 185.94 161.94 185.55C162.33 185.17 162.79 184.87 163.3 184.67C163.8 184.47 164.35 184.38 164.89 184.4C165.43 184.38 165.98 184.47 166.48 184.68C166.99 184.88 167.45 185.18 167.83 185.57C168.21 185.96 168.51 186.43 168.7 186.94C168.88 187.45 168.96 187.99 168.93 188.54C168.93 188.67 168.92 188.9 168.91 189.07ZM162.62 187.84L167.15 187.84C167.09 187.29 166.83 186.78 166.41 186.41C165.99 186.05 165.44 185.86 164.89 185.88C164.33 185.86 163.79 186.05 163.37 186.42C162.95 186.78 162.68 187.29 162.62 187.84Z" fill="#263238" fill-opacity="1.000000" fill-rule="nonzero"/>
	<path id="Vector" d="M239.47 174.5L214.9 174.5C213.36 174.5 211.88 175.11 210.79 176.2C209.7 177.29 209.08 178.77 209.08 180.32L209.08 192.28C209.08 193.82 209.7 195.3 210.79 196.39C211.88 197.49 213.36 198.1 214.9 198.1L221.33 198.1L226.18 209.13L233.04 198.1L239.47 198.1C241.01 198.1 242.49 197.49 243.58 196.39C244.68 195.3 245.29 193.82 245.29 192.28L245.29 180.27C245.28 178.74 244.66 177.27 243.57 176.18C242.48 175.1 241 174.5 239.47 174.5Z" fill="#FFFFFF" fill-opacity="1.000000" fill-rule="nonzero"/>
	<path id="Vector" d="M214.9 174.5C213.36 174.5 211.88 175.11 210.79 176.2C209.7 177.29 209.08 178.77 209.08 180.32L209.08 192.28C209.08 193.82 209.7 195.3 210.79 196.39C211.88 197.49 213.36 198.1 214.9 198.1L221.33 198.1L226.18 209.13L233.04 198.1L239.47 198.1C241.01 198.1 242.49 197.49 243.58 196.39C244.68 195.3 245.29 193.82 245.29 192.28L245.29 180.27C245.28 178.74 244.66 177.27 243.57 176.18C242.48 175.1 241 174.5 239.47 174.5L214.9 174.5Z" stroke="#263238" stroke-opacity="1.000000" stroke-width="1.000000" stroke-linejoin="round"/>
	<path id="Vector" d="M220.54 183.36L220.54 183.89L222.74 183.89L222.74 185.39L220.6 185.39L220.6 191.82L218.78 191.82L218.78 185.39L217.46 185.39L217.46 183.89L218.78 183.89L218.78 183.38C218.75 183 218.8 182.62 218.94 182.27C219.07 181.91 219.28 181.59 219.56 181.33C219.83 181.06 220.16 180.86 220.51 180.74C220.87 180.62 221.26 180.58 221.63 180.62C222.22 180.59 222.81 180.74 223.32 181.05L222.8 182.46C222.5 182.25 222.14 182.13 221.77 182.12C220.95 182.06 220.54 182.51 220.54 183.36Z" fill="#263238" fill-opacity="1.000000" fill-rule="nonzero"/>
	<path id="Vector" d="M223.22 187.77C223.18 186.92 223.41 186.08 223.85 185.36C224.3 184.64 224.96 184.06 225.73 183.72C226.51 183.37 227.37 183.26 228.21 183.41C229.04 183.56 229.82 183.95 230.43 184.54C231.04 185.13 231.46 185.89 231.64 186.72C231.82 187.55 231.74 188.42 231.42 189.21C231.1 189.99 230.56 190.67 229.85 191.14C229.15 191.62 228.31 191.87 227.46 191.87C226.91 191.9 226.36 191.82 225.84 191.63C225.32 191.43 224.84 191.14 224.44 190.75C224.04 190.37 223.73 189.9 223.52 189.39C223.31 188.88 223.2 188.32 223.22 187.77ZM229.84 187.77C229.81 187.32 229.64 186.88 229.37 186.52C229.1 186.16 228.72 185.89 228.3 185.74C227.87 185.59 227.41 185.56 226.97 185.67C226.52 185.78 226.13 186.01 225.82 186.34C225.51 186.67 225.3 187.09 225.22 187.54C225.15 187.98 225.2 188.44 225.38 188.86C225.56 189.27 225.86 189.63 226.24 189.88C226.61 190.13 227.06 190.26 227.51 190.26C227.83 190.26 228.15 190.2 228.44 190.07C228.74 189.94 229 189.76 229.22 189.52C229.44 189.29 229.6 189.01 229.71 188.71C229.82 188.41 229.86 188.09 229.84 187.77Z" fill="#263238" fill-opacity="1.000000" fill-rule="nonzero"/>
	<path id="Vector" d="M238.13 183.68L238.13 185.46C237.98 185.45 237.84 185.45 237.7 185.46C237.37 185.44 237.05 185.49 236.74 185.6C236.44 185.72 236.17 185.9 235.94 186.14C235.72 186.38 235.55 186.66 235.45 186.97C235.35 187.28 235.32 187.61 235.37 187.93L235.37 191.81L233.49 191.81L233.49 183.78L235.28 183.78L235.28 184.94C235.6 184.5 236.04 184.16 236.54 183.93C237.04 183.71 237.58 183.63 238.13 183.68Z" fill="#263238" fill-opacity="1.000000" fill-rule="nonzero"/>
	<path id="Vector" d="M310.9 173.53L286.3 173.53C284.76 173.53 283.28 174.14 282.19 175.23C281.09 176.33 280.48 177.81 280.48 179.35L280.48 191.31C280.48 192.85 281.09 194.33 282.19 195.43C283.28 196.52 284.76 197.13 286.3 197.13L292.73 197.13L297.58 208.16L304.44 197.13L310.87 197.13C312.41 197.13 313.89 196.52 314.98 195.43C316.07 194.33 316.69 192.85 316.69 191.31L316.69 179.3C316.68 177.77 316.06 176.31 314.98 175.23C313.9 174.15 312.43 173.54 310.9 173.53Z" fill="#FFFFFF" fill-opacity="1.000000" fill-rule="nonzero"/>
	<path id="Vector" d="M286.3 173.53C284.76 173.53 283.28 174.14 282.19 175.23C281.09 176.33 280.48 177.81 280.48 179.35L280.48 191.31C280.48 192.85 281.09 194.33 282.19 195.43C283.28 196.52 284.76 197.13 286.3 197.13L292.73 197.13L297.58 208.16L304.44 197.13L310.87 197.13C312.41 197.13 313.89 196.52 314.98 195.43C316.07 194.33 316.69 192.85 316.69 191.31L316.69 179.3C316.68 177.77 316.06 176.31 314.98 175.23C313.9 174.15 312.43 173.54 310.9 173.53L286.3 173.53Z" stroke="#263238" stroke-opacity="1.000000" stroke-width="1.000000" stroke-linejoin="round"/>
	<path id="Vector" d="M295.43 182.41L302.32 182.41L302.32 183.89L295.43 183.89L295.43 182.41ZM295.43 186.04L302.32 186.04L302.32 187.54L295.43 187.54L295.43 186.04Z" fill="#263238" fill-opacity="1.000000" fill-rule="nonzero"/>
	<path id="Vector" d="M129.66 159.71L105.1 159.71C103.55 159.71 102.07 160.32 100.98 161.41C99.89 162.5 99.28 163.99 99.28 165.53L99.28 177.48C99.28 179.02 99.89 180.5 100.98 181.59C102.07 182.69 103.55 183.3 105.1 183.3L111.52 183.3L116.38 194.33L123.24 183.3L129.66 183.3C131.21 183.3 132.69 182.69 133.78 181.59C134.87 180.5 135.48 179.02 135.48 177.48L135.48 165.48C135.47 163.95 134.85 162.48 133.76 161.4C132.67 160.31 131.2 159.71 129.66 159.71Z" fill="#FFFFFF" fill-opacity="1.000000" fill-rule="nonzero"/>
	<path id="Vector" d="M105.1 159.71C103.55 159.71 102.07 160.32 100.98 161.41C99.89 162.5 99.28 163.99 99.28 165.53L99.28 177.48C99.28 179.02 99.89 180.5 100.98 181.59C102.07 182.69 103.55 183.3 105.1 183.3L111.52 183.3L116.38 194.33L123.24 183.3L129.66 183.3C131.21 183.3 132.69 182.69 133.78 181.59C134.87 180.5 135.48 179.02 135.48 177.48L135.48 165.48C135.47 163.95 134.85 162.48 133.76 161.4C132.67 160.31 131.2 159.71 129.66 159.71L105.1 159.71Z" stroke="#263238" stroke-opacity="1.000000" stroke-width="1.000000" stroke-linejoin="round"/>
	<path id="Vector" d="M111.6 164.67L115.17 164.67L115.17 166.17L113.47 166.17L113.47 177.17L115.17 177.17L115.17 178.68L111.6 178.68L111.6 164.67Z" fill="#263238" fill-opacity="1.000000" fill-rule="nonzero"/>
	<path id="Vector" d="M119.82 178.68L119.82 177.17L121.51 177.17L121.51 166.17L119.82 166.17L119.82 164.67L123.32 164.67L123.32 178.64L119.82 178.68Z" fill="#263238" fill-opacity="1.000000" fill-rule="nonzero"/>
	<path id="Vector" d="M202.68 158.48L178.12 158.48C176.57 158.48 175.09 159.1 174 160.19C172.91 161.28 172.29 162.76 172.29 164.31L172.29 176.21C172.29 177.75 172.91 179.23 174 180.32C175.09 181.42 176.57 182.03 178.12 182.03L184.54 182.03L189.41 193.06L196.27 182.03L202.68 182.03C204.22 182.03 205.7 181.42 206.8 180.32C207.89 179.23 208.5 177.75 208.5 176.21L208.5 164.26C208.49 162.72 207.87 161.25 206.78 160.17C205.69 159.09 204.22 158.48 202.68 158.48Z" fill="#FFFFFF" fill-opacity="1.000000" fill-rule="nonzero"/>
	<path id="Vector" d="M178.12 158.48C176.57 158.48 175.09 159.1 174 160.19C172.91 161.28 172.29 162.76 172.29 164.31L172.29 176.21C172.29 177.75 172.91 179.23 174 180.32C175.09 181.42 176.57 182.03 178.12 182.03L184.54 182.03L189.41 193.06L196.27 182.03L202.68 182.03C204.22 182.03 205.7 181.42 206.8 180.32C207.89 179.23 208.5 177.75 208.5 176.21L208.5 164.26C208.49 162.72 207.87 161.25 206.78 160.17C205.69 159.09 204.22 158.48 202.68 158.48L178.12 158.48Z" stroke="#263238" stroke-opacity="1.000000" stroke-width="1.000000" stroke-linejoin="round"/>
	<path id="Vector" d="M185.4 170.4C186 170.59 186.29 171 186.29 171.92L186.29 174.78C186.26 174.93 186.27 175.09 186.32 175.24C186.36 175.39 186.44 175.52 186.55 175.63C186.66 175.75 186.79 175.83 186.93 175.89C187.08 175.94 187.24 175.96 187.39 175.94L187.71 175.94L187.71 177.44L186.95 177.44C186.61 177.49 186.27 177.46 185.95 177.36C185.62 177.26 185.33 177.08 185.08 176.84C184.83 176.61 184.65 176.32 184.53 176C184.42 175.68 184.37 175.33 184.41 175L184.41 171.92C184.41 171.42 184.16 171.2 183.74 171.2L183.25 171.2L183.25 169.67L183.74 169.67C184.16 169.67 184.41 169.45 184.41 168.95L184.41 165.87C184.37 165.53 184.41 165.19 184.53 164.87C184.65 164.55 184.83 164.26 185.08 164.02C185.33 163.79 185.62 163.61 185.95 163.51C186.27 163.41 186.61 163.38 186.95 163.43L187.71 163.43L187.71 164.94L187.35 164.94C187.19 164.91 187.03 164.93 186.88 164.98C186.74 165.03 186.6 165.12 186.5 165.23C186.39 165.35 186.31 165.49 186.26 165.64C186.22 165.79 186.21 165.95 186.24 166.1L186.24 168.94C186.29 169.8 186 170.21 185.4 170.4Z" fill="#263238" fill-opacity="1.000000" fill-rule="nonzero"/>
	<path id="Vector" d="M196.81 169.64L196.81 171.17L196.3 171.17C195.89 171.17 195.64 171.39 195.64 171.89L195.64 174.96C195.67 175.3 195.63 175.64 195.51 175.96C195.39 176.28 195.21 176.57 194.96 176.81C194.71 177.04 194.42 177.22 194.09 177.32C193.77 177.43 193.42 177.46 193.09 177.41L192.33 177.41L192.33 175.9L192.64 175.9C192.8 175.93 192.97 175.92 193.12 175.87C193.27 175.82 193.41 175.74 193.52 175.62C193.64 175.51 193.72 175.37 193.77 175.21C193.82 175.06 193.83 174.9 193.81 174.74L193.81 171.89C193.81 170.97 194.08 170.56 194.67 170.36C194.08 170.18 193.81 169.77 193.81 168.84L193.81 166C193.84 165.84 193.83 165.67 193.78 165.52C193.73 165.36 193.65 165.22 193.53 165.11C193.42 164.99 193.28 164.91 193.12 164.86C192.97 164.81 192.8 164.8 192.64 164.83L192.33 164.83L192.33 163.4L193.09 163.4C193.42 163.35 193.77 163.37 194.09 163.48C194.42 163.58 194.71 163.75 194.96 163.99C195.21 164.22 195.4 164.51 195.51 164.83C195.63 165.15 195.67 165.49 195.64 165.83L195.64 168.92C195.64 169.42 195.89 169.64 196.3 169.64L196.81 169.64Z" fill="#263238" fill-opacity="1.000000" fill-rule="nonzero"/>
	<path id="Vector" d="M274.93 156.06L250.36 156.06C248.82 156.06 247.34 156.68 246.25 157.77C245.16 158.86 244.54 160.34 244.54 161.88L244.54 173.83C244.54 175.38 245.16 176.86 246.25 177.95C247.34 179.04 248.82 179.65 250.36 179.65L256.78 179.65L261.65 190.68L268.5 179.65L274.93 179.65C276.47 179.65 277.95 179.04 279.04 177.95C280.14 176.86 280.75 175.38 280.75 173.83L280.75 161.84C280.74 160.3 280.12 158.83 279.03 157.75C277.94 156.67 276.46 156.06 274.93 156.06Z" fill="#FFFFFF" fill-opacity="1.000000" fill-rule="nonzero"/>
	<path id="Vector" d="M250.36 156.06C248.82 156.06 247.34 156.68 246.25 157.77C245.16 158.86 244.54 160.34 244.54 161.88L244.54 173.83C244.54 175.38 245.16 176.86 246.25 177.95C247.34 179.04 248.82 179.65 250.36 179.65L256.78 179.65L261.65 190.68L268.5 179.65L274.93 179.65C276.47 179.65 277.95 179.04 279.04 177.95C280.14 176.86 280.75 175.38 280.75 173.83L280.75 161.84C280.74 160.3 280.12 158.83 279.03 157.75C277.94 156.67 276.46 156.06 274.93 156.06L250.36 156.06Z" stroke="#263238" stroke-opacity="1.000000" stroke-width="1.000000" stroke-linejoin="round"/>
	<path id="Vector" d="M261.67 164.9C261.65 164.73 261.67 164.56 261.72 164.39C261.78 164.23 261.87 164.08 261.98 163.95C262.1 163.82 262.24 163.72 262.4 163.65C262.55 163.58 262.72 163.55 262.9 163.55C263.07 163.55 263.24 163.58 263.4 163.65C263.55 163.72 263.69 163.82 263.81 163.95C263.93 164.08 264.01 164.23 264.07 164.39C264.12 164.56 264.14 164.73 264.12 164.9C264.14 165.07 264.12 165.25 264.07 165.41C264.01 165.57 263.93 165.72 263.81 165.85C263.69 165.98 263.55 166.08 263.4 166.15C263.24 166.22 263.07 166.25 262.9 166.25C262.72 166.25 262.55 166.22 262.4 166.15C262.24 166.08 262.1 165.98 261.98 165.85C261.87 165.72 261.78 165.57 261.72 165.41C261.67 165.25 261.65 165.07 261.67 164.9ZM264.12 170.61C264.09 171.05 263.97 171.49 263.78 171.89L263.01 174.01L261.84 174.01L262.45 171.68C262.23 171.59 262.05 171.43 261.92 171.23C261.79 171.04 261.73 170.81 261.74 170.57C261.74 170.25 261.87 169.94 262.09 169.71C262.32 169.48 262.63 169.35 262.95 169.35C263.28 169.35 263.59 169.48 263.81 169.71C264.04 169.94 264.17 170.25 264.17 170.57L264.12 170.61Z" fill="#263238" fill-opacity="1.000000" fill-rule="nonzero"/>
	<path id="Vector" d="M178.91 365.01L203.46 365.01C205 365.01 206.48 364.39 207.58 363.3C208.67 362.21 209.28 360.73 209.28 359.19L209.28 347.27C209.26 345.74 208.64 344.27 207.55 343.19C206.46 342.11 204.99 341.51 203.46 341.51L197.04 341.51L195.17 330.48L185.32 341.51L178.91 341.51C177.37 341.51 175.9 342.11 174.81 343.19C173.72 344.27 173.1 345.74 173.09 347.27L173.09 359.23C173.1 360.77 173.72 362.24 174.81 363.32C175.9 364.4 177.37 365.01 178.91 365.01Z" fill="#FFFFFF" fill-opacity="1.000000" fill-rule="nonzero"/>
	<path id="Vector" d="M203.46 365.01C205 365.01 206.48 364.39 207.58 363.3C208.67 362.21 209.28 360.73 209.28 359.19L209.28 347.27C209.26 345.74 208.64 344.27 207.55 343.19C206.46 342.11 204.99 341.51 203.46 341.51L197.04 341.51L195.17 330.48L185.32 341.51L178.91 341.51C177.37 341.51 175.9 342.11 174.81 343.19C173.72 344.27 173.1 345.74 173.09 347.27L173.09 359.23C173.1 360.77 173.72 362.24 174.81 363.32C175.9 364.4 177.37 365.01 178.91 365.01L203.46 365.01Z" stroke="#263238" stroke-opacity="1.000000" stroke-width="1.000000" stroke-linejoin="round"/>
	<path id="Vector" d="M187.53 350.8L182.38 352.73L187.53 354.67L187.53 356.23L180.64 353.55L180.64 351.92L187.53 349.24L187.53 350.8Z" fill="#263238" fill-opacity="1.000000" fill-rule="nonzero"/>
	<path id="Vector" d="M192.98 345.36L194.65 345.36L189.68 359.46L188.05 359.46L192.98 345.36Z" fill="#263238" fill-opacity="1.000000" fill-rule="nonzero"/>
	<path id="Vector" d="M201.9 351.92L201.9 353.54L195.01 356.22L195.01 354.66L200.15 352.73L195 350.81L195 349.24L201.9 351.92Z" fill="#263238" fill-opacity="1.000000" fill-rule="nonzero"/>
	<path id="Vector" d="M22.77 277.97L47.32 277.97C48.86 277.97 50.34 277.35 51.43 276.26C52.53 275.17 53.14 273.69 53.14 272.14L53.14 260.24C53.14 258.7 52.53 257.22 51.43 256.13C50.34 255.04 48.86 254.42 47.32 254.42L40.9 254.42L42.3 243.39L29.18 254.42L22.77 254.42C21.22 254.42 19.74 255.04 18.65 256.13C17.56 257.22 16.94 258.7 16.94 260.24L16.94 272.19C16.96 273.73 17.58 275.2 18.67 276.28C19.76 277.36 21.23 277.97 22.77 277.97Z" fill="#FFFFFF" fill-opacity="1.000000" fill-rule="nonzero"/>
	<path id="Vector" d="M47.32 277.97C48.86 277.97 50.34 277.35 51.43 276.26C52.53 275.17 53.14 273.69 53.14 272.14L53.14 260.24C53.14 258.7 52.53 257.22 51.43 256.13C50.34 255.04 48.86 254.42 47.32 254.42L40.9 254.42L42.3 243.39L29.18 254.42L22.77 254.42C21.22 254.42 19.74 255.04 18.65 256.13C17.56 257.22 16.94 258.7 16.94 260.24L16.94 272.19C16.96 273.73 17.58 275.2 18.67 276.28C19.76 277.36 21.23 277.97 22.77 277.97L47.32 277.97Z" stroke="#263238" stroke-opacity="1.000000" stroke-width="1.000000" stroke-linejoin="round"/>
	<path id="Vector" d="M30.04 270.39C30.04 270.08 30.16 269.78 30.38 269.56C30.6 269.34 30.9 269.22 31.21 269.22C31.52 269.22 31.81 269.34 32.03 269.56C32.25 269.78 32.37 270.08 32.37 270.39C32.37 270.69 32.25 270.99 32.03 271.21C31.81 271.43 31.52 271.55 31.21 271.55C30.9 271.55 30.6 271.43 30.38 271.21C30.16 270.99 30.04 270.69 30.04 270.39ZM30.18 260.98L32.39 260.98L32.02 267.96L30.51 267.96L30.18 260.98Z" fill="#263238" fill-opacity="1.000000" fill-rule="nonzero"/>
	<path id="Vector" d="M34.29 263.66L41.18 263.66L41.18 265.16L34.29 265.16L34.29 263.66ZM34.29 267.28L41.18 267.28L41.18 268.78L34.29 268.78L34.29 267.28Z" fill="#263238" fill-opacity="1.000000" fill-rule="nonzero"/>
</svg>
